<svg xmlns="http://www.w3.org/2000/svg" id="Layer_2" viewBox="0 0 180 154.63"><defs><style>      .cls-1 {        fill: #fff;      }    </style></defs><g id="Layer_1-2" data-name="Layer_1"><g><path class="cls-1" d="M110.61.28l-.2-.28-49.45,11.23-15.88,23.72,25.16,42.79.14.25h45.06l19.36-42.81.12-.26L110.61.28ZM132.29,32.92l-35.04-23.88,12.81-7.79,22.23,31.67ZM109,30.62l-15.9,18.13-12.47-14.18.23-11.29,14.32-10.28,13.81,17.62ZM98.49,11.13l33.11,22.56-12.32-3.38-20.79-19.19ZM61.42,12.37l13.42,8.32-28.01,13.46,14.59-21.78ZM70.45,76.1l-23.92-40.68,28.54-13.72-4.63,54.39ZM62.59,11.9L107.28,1.75l-13.58,8.25-18.02,10.01-13.09-8.11ZM80.43,44.43l10.56,10.35-11.23,21.51.66-31.86ZM80.56,76.98l11.19-21.45,21.89,21.45h-33.08ZM114.62,73.23l-18.24-20.76,22.08-20.4-3.83,41.16ZM115.85,74.63l-.3-.34,3.99-42.85,14.1,3.86-17.79,39.33Z"></path><g><path class="cls-1" d="M29.86,152.66v1.52c0,.24-.2.44-.44.44s-.44-.2-.44-.44v-6.47c0-.24.2-.44.44-.44s.44.2.44.44v3.67l3.79-3.98c.17-.18.45-.18.62-.01.08.08.13.19.14.31,0,.12-.04.23-.12.32l-2.67,2.81,2.98,3.05c.17.17.17.45,0,.62-.17.17-.45.17-.62,0l-2.96-3.03-1.15,1.2h0Z"></path><path class="cls-1" d="M39.39,148.19c-.24,0-.44-.2-.44-.44s.2-.44.44-.44h2.54c.24,0,.44.2.44.44s-.2.44-.44.44h-.83v5.5s.82,0,.82,0c.24,0,.44.2.44.44s-.2.44-.44.44h-2.54c-.24,0-.44-.2-.44-.44s.2-.44.44-.44h.83v-5.5s-.82,0-.82,0Z"></path><path class="cls-1" d="M47.04,148.19c-.24,0-.44-.2-.44-.44s.2-.44.44-.44h5.34c.24,0,.44.2.44.44s-.2.44-.44.44h-2.23v5.99c0,.24-.2.44-.44.44s-.44-.2-.44-.44v-5.99s-2.23,0-2.23,0Z"></path><path class="cls-1" d="M62.57,152.35c.12-.21.39-.28.6-.16.21.12.28.39.16.6-.66,1.13-1.87,1.82-3.18,1.82-2.03,0-3.68-1.65-3.68-3.68,0-2.03,1.65-3.68,3.68-3.68,1.31,0,2.52.69,3.17,1.82.06.1.08.22.05.33-.03.11-.1.21-.2.27-.21.12-.48.05-.6-.16-.5-.86-1.42-1.39-2.41-1.39-1.54,0-2.79,1.25-2.79,2.79,0,1.54,1.25,2.79,2.79,2.79.99,0,1.91-.53,2.41-1.39h0Z"></path><path class="cls-1" d="M72.83,150.5v-2.79c0-.24.2-.44.44-.44s.44.2.44.44v6.47c0,.24-.2.44-.44.44s-.44-.2-.44-.44v-2.79h-4v2.79c0,.24-.2.44-.44.44s-.44-.2-.44-.44v-6.47c0-.24.2-.44.44-.44s.44.2.44.44v2.79h4Z"></path><path class="cls-1" d="M79.02,154.58c-.24,0-.44-.2-.44-.44v-6.38c0-.24.2-.44.44-.44h4.71c.24,0,.44.2.44.44s-.2.44-.44.44h-4.27v2.31h3.74c.24,0,.44.2.44.44s-.2.44-.44.44h-3.74v2.31h4.27c.24,0,.44.2.44.44s-.2.44-.44.44h-4.71s0,0,0,0Z"></path><path class="cls-1" d="M89.14,154.62c-.24,0-.44-.2-.44-.44v-6.47c0-.19.12-.36.3-.42.18-.06.38,0,.49.15l4.08,5.42v-5.15c0-.24.2-.44.44-.44s.44.2.44.44v6.47c0,.19-.12.36-.3.42-.18.06-.38,0-.49-.15l-4.08-5.42v5.15c0,.24-.2.44-.44.44Z"></path><path class="cls-1" d="M111.7,153.84c.08.09.13.19.15.31.02.2-.1.39-.29.46s-.4,0-.51-.17l-.03-.04c-.1-.13-.35-.43-.7-.83-.4.44-1.1,1.07-2.33,1.07s-2.2-1.02-1.98-2.21c.11-.6.54-1.26,1.48-1.84l-.05-.04c-.8-.74-.93-1.76-.56-2.44.26-.48.78-.83,1.54-.83.5,0,.97.22,1.29.6.32.38.44.89.35,1.38-.09.5-.42,1.06-1.11,1.52.5.51.98,1.02,1.39,1.48.39-.39.77-.75.77-.75.18-.17.46-.16.62.02.17.18.16.46-.02.62,0,0-.4.37-.79.76.39.44.67.78.78.92ZM109.73,152.9c-.46-.52-1.01-1.11-1.59-1.68-.78.43-1.18.9-1.27,1.37-.12.64.43,1.16,1.11,1.16.94,0,1.45-.51,1.75-.85ZM108.04,149.89c.09.08.18.17.26.25.33-.17.61-.44.79-.77.3-.6-.09-1.22-.67-1.22-.37,0-.64.14-.77.37-.21.39-.06.94.39,1.37Z"></path><path class="cls-1" d="M129.35,152.56c0,.54-.22,1.06-.61,1.44-.39.38-.91.59-1.45.57h-3.54c-.24,0-.44-.2-.44-.44v-6.38c0-.24.19-.44.43-.44h3.39c.54-.01,1.07.2,1.46.58.39.38.61.9.61,1.44,0,.6-.26,1.17-.72,1.56.54.39.86,1.01.86,1.68ZM124.19,150.5h2.95c.65,0,1.18-.53,1.18-1.18,0-.31-.13-.6-.35-.82-.22-.21-.52-.33-.83-.32h-2.95v2.31ZM128.12,153.37c.22-.21.35-.51.35-.81,0-.65-.53-1.18-1.18-1.18h-3.1v2.31h3.1c.31,0,.6-.11.83-.32Z"></path><path class="cls-1" d="M140.71,154.33c-.04.11-.12.2-.22.25-.22.11-.48.02-.59-.2l-.88-1.81h-3.73l-.88,1.81c-.11.22-.37.31-.59.2-.11-.05-.19-.14-.22-.25-.04-.11-.03-.23.02-.34l3.14-6.47c.07-.15.23-.25.4-.25s.32.1.4.25l3.14,6.47c.05.11.06.23.02.34ZM138.59,151.68l-1.44-2.96-1.44,2.96h2.88Z"></path><path class="cls-1" d="M149.45,151.6l1.36,2.37c.12.21.05.48-.16.6-.21.12-.48.05-.6-.16l-1.57-2.72h-2.33v2.5c0,.24-.2.44-.44.44s-.44-.2-.44-.44v-6.42c0-.24.2-.44.44-.44.02,0,1.73,0,3.13,0,.58,0,1.14.23,1.55.65.41.41.64.98.63,1.56,0,.97-.65,1.81-1.58,2.08ZM150.14,149.51c0-.35-.13-.68-.38-.93-.24-.25-.58-.39-.93-.39h-2.69v2.61h2.69c.71,0,1.3-.58,1.3-1.29h0Z"></path></g><path class="cls-1" d="M5.47,132.48H0v-31.99h26.26c4.87,0,9.78,2.78,9.78,8.37v2.86c0,4.01-2.52,6.62-5.77,7.73l6.36,13.03h-5.89l-5.42-12.38H5.47v12.38ZM30.58,111.72v-2.86c0-2.6-2.18-3.93-4.31-3.93H5.47v10.72h20.8c2.14,0,4.31-1.32,4.31-3.93ZM84.26,108.43v16.1c0,5.59-4.91,8.37-9.78,8.37h-17.08c-4.87,0-9.78-2.78-9.78-8.37v-16.1c0-5.59,4.91-8.37,9.78-8.37h17.08c4.87,0,9.78,2.78,9.78,8.37ZM53.08,108.43v16.1c0,2.6,2.18,3.93,4.31,3.93h17.08c2.14,0,4.31-1.32,4.31-3.93v-16.1c0-2.61-2.18-3.93-4.31-3.93h-17.08c-2.14,0-4.31,1.32-4.31,3.93ZM95.34,124.54v-16.1c0-5.59,4.91-8.37,9.69-8.37h17.08c4.78,0,9.44,2.78,9.44,8.37h-5.47c0-2.61-1.92-3.93-3.97-3.93h-17.08c-2.05,0-4.23,1.32-4.23,3.93v16.1c0,2.6,2.18,3.93,4.31,3.93h17.08c2.14,0,4.31-1.32,4.31-3.93h5.47c0,5.59-4.91,8.37-9.78,8.37h-17.08c-4.87,0-9.78-2.78-9.78-8.37ZM148.82,100.49v14.35h9.22l13.41-13.07c.81-.81,1.84-1.28,2.65-1.28h5.47l-16.57,15.55,17,16.44h-7.18l-13.45-13.2h-10.55v13.2h-5.47v-31.99h5.47Z"></path></g></g></svg>