<svg xmlns="http://www.w3.org/2000/svg" id="Layer_2" viewBox="0 0 242 109.47"><defs><style>      .cls-1 {        fill: #fff;      }    </style></defs><g id="Layer_1-2" data-name="Layer_1"><g><rect class="cls-1" x="238.31" y="74.04" width="2.83" height="2.83" transform="translate(16.89 191.66) rotate(-45.01)"></rect><rect class="cls-1" x="129.39" y="74.04" width="2.83" height="2.83" transform="translate(-15.03 114.63) rotate(-45.01)"></rect><polygon class="cls-1" points="147.72 72.06 147.72 74.72 144.38 74.72 144.38 72.06 143.11 72.06 143.11 78.5 144.38 78.5 144.38 75.85 147.72 75.85 147.72 78.5 148.99 78.5 148.99 72.06 147.72 72.06"></polygon><path class="cls-1" d="M158.17,71.95c.66,0,1.26.14,1.8.42.54.28.96.68,1.27,1.19s.46,1.08.46,1.72-.15,1.21-.46,1.72c-.31.51-.73.9-1.27,1.19-.54.28-1.14.42-1.8.42s-1.26-.14-1.8-.42c-.54-.28-.96-.68-1.27-1.19-.31-.51-.46-1.08-.46-1.72s.15-1.21.46-1.72c.31-.51.73-.9,1.27-1.19.54-.28,1.14-.42,1.8-.42ZM158.17,77.45c.44,0,.82-.09,1.16-.27.34-.18.6-.44.78-.76.18-.33.28-.71.28-1.14s-.09-.81-.28-1.13-.44-.58-.78-.76c-.33-.18-.72-.27-1.15-.27s-.84.09-1.17.27c-.33.18-.59.43-.78.76s-.28.7-.28,1.13.09.81.28,1.14c.18.33.44.58.78.76.33.18.72.27,1.16.27Z"></path><path class="cls-1" d="M174.12,78.5h-1.27v-4.29l-.12.19-1.83,2.23h-.31l-1.83-2.23-.12-.2v4.3h-1.28v-6.44h.87l2.34,2.77.17.25.17-.25,2.33-2.77h.87v6.44Z"></path><path class="cls-1" d="M181.28,74.65h3.43v1.12h-3.43v1.6h3.78v1.13h-5.04v-6.44h5.01v1.13h-3.75v1.45Z"></path><path class="cls-1" d="M192.07,73.79c0,.18.06.32.19.43s.28.19.47.26c.19.06.45.13.79.21.47.12.86.23,1.16.34s.56.3.78.55c.22.25.33.59.33,1.01s-.11.78-.32,1.08c-.21.3-.52.54-.91.7-.39.17-.84.25-1.35.25s-1.01-.08-1.48-.24-.87-.35-1.2-.57l.55-1.02c.34.2.69.37,1.05.49s.71.19,1.06.19c.22,0,.43-.02.62-.07.19-.05.34-.13.46-.24.12-.11.18-.25.18-.43s-.06-.32-.19-.44-.28-.2-.47-.27c-.19-.06-.45-.14-.77-.23-.47-.11-.85-.23-1.14-.34s-.55-.3-.77-.55-.33-.57-.34-.98.1-.76.3-1.05c.21-.3.51-.52.89-.68.39-.16.83-.23,1.33-.23.39,0,.76.05,1.11.15.36.1.7.23,1.02.4l-.51,1.02c-.29-.14-.59-.25-.89-.33-.31-.08-.59-.12-.84-.12s-.44.03-.61.09c-.17.06-.3.14-.39.24-.09.1-.14.23-.14.39Z"></path><path class="cls-1" d="M206.1,73.19h-1.98v5.31h-1.29v-5.31h-1.98v-1.13h5.24v1.13Z"></path><path class="cls-1" d="M215.9,78.5h1.39l-2.95-6.45h-1.12l-2.96,6.45h1.4l.5-1.16h3.25l.5,1.16ZM212.63,76.25l1-2.33.15-.38.15.38,1,2.33h-2.3Z"></path><path class="cls-1" d="M224.82,75.78v2.72h-1.28v-2.71l-2.59-3.72h1.45l1.63,2.37.17.34.17-.34,1.62-2.37h1.42l-2.59,3.71Z"></path><path class="cls-1" d="M83.34,68.08c-1.08,2.43-1.88,5.02-2.39,7.84.84-.22,1.42-.45,2.21-.84.58-2.5,1.39-4.81,2.44-7h-2.26ZM98.06,68.08h-2.47c-4.49,6.76-6.11,15.4-4.09,23.32l1.95-.45c-2.05-7.88-.13-16.39,4.62-22.86ZM92.65,27.65h-2c-.07,4.59.93,9.14,2.93,13.25h2.27c-2.2-3.93-3.33-8.53-3.2-13.25ZM91.8,68.08h-2.44c-1.32,2.4-2.33,4.96-3.04,7.69-1.74.95-3.91,1.73-5.76,2.42-1.39.52-6.48,1.5-7.76,1.78-10.64,2.29-18.57,10.33-18.46,10.44-5.83-5.86-12.9-9.63-21.08-10.9.08.45.52,1.66.75,2.01,7.58,1.3,13.53,4.88,18.95,10.33-.74.82-1.44,1.65-2.1,2.52-5.02-5.09-10.64-8.67-17.66-9.93-.13-.28-2.12-4.47-2.77-8.11-2-11.42-6.14-17.1-11.37-22.5,1.79-1.8,3.42-3.76,4.84-5.85,3.1-4.56,5.17-8.94,6.12-14.37-.82.08-1.87.61-2.17.78-1.44,7.2-5.05,12.88-10.24,18.06-.81-.73-1.66-1.44-2.51-2.09,4.86-4.79,7.91-9.83,9.28-16.51.32-.21,2.7-1.8,6.13-2.47,10.15-1.99,19.15-5.43,26.03-12.31,5.83,5.86,12.3,9.65,20.48,10.93-.02-.75-.42-1.72-.7-2.15-7.44-1.35-13.07-4.86-18.39-10.23.73-.81,1.43-1.65,2.1-2.51,4.94,5.02,10.4,8.33,17.32,9.62,2.77,4.57,2.24,7.91,4.46,15.1.11.36.23.72.35,1.07h2.22c-.81-2.24-1.41-4.57-1.76-6.95,1.48,2.46,3.17,4.79,5.05,6.95h3.65c-3.21-3.01-6-6.48-8.2-10.24,1.62.06,3.3.03,4.88-.1l-.15-2c-1.97.16-3.91.17-5.88.03-.58-1.1-1.13-2.25-1.63-3.42,3.02.38,6.05.36,9.07-.04l-.25-1.98c-10.2,1.44-20.77-2.23-27.93-9.67.63-.92,1.23-1.86,1.79-2.84,7.04,7.87,18.46,11.32,28.69,8.73l-.46-1.95c-10.53,2.74-22.16-1.61-28.61-10.3-5.3,11.15-16.22,19.34-28.4,21.14,10.16-6.12,18.03-15.85,21.74-27.06l-3.69-1.17c-2.46,11.64-12.83,18.44-24.34,18.19v2c6,.1,11.95-1.66,16.91-5.03-3.8,5.18-8.65,9.55-14.22,12.75.1-1.84.08-3.66-.07-5.54l-2,.15c.18,2.2.18,4.39-.01,6.54-1.13.59-2.29,1.13-3.46,1.61.47-3.21.48-6.48.04-9.7l-1.98.25c1.43,10.2-2.23,20.77-9.67,27.92-.92-.63-1.86-1.23-2.84-1.78,7.86-7.05,11.33-18.46,8.72-28.69l-1.95.45c2.74,10.54-1.61,22.16-10.3,28.61,11.15,5.3,19.34,16.22,21.13,28.4-6.11-10.15-15.84-18.02-27.06-21.73l-1.16,3.7c11.64,2.45,18.44,12.85,18.19,24.33h2c.1-5.99-1.66-11.95-5.03-16.9,4.9,3.58,9.05,8.11,12.2,13.28-1.49-.05-3.03,0-4.48.12l.15,2c1.8-.15,3.72-.17,5.51-.05.63,1.15,1.19,2.27,1.69,3.4-2.9-.34-5.87-.31-8.76.08l.25,1.99c10.16-1.47,20.82,2.26,27.92,9.67-.62.9-1.22,1.85-1.78,2.84-7.07-7.87-18.43-11.31-28.69-8.72.06.25.41,1.73.45,1.95,10.6-2.7,22.09,1.53,28.61,10.3,5.31-11.17,16.22-19.34,28.4-21.14-10.17,6.12-18.04,15.87-21.74,27.07l3.7,1.16c2.4-11.58,12.91-18.48,24.33-18.19v-2c-6-.09-11.94,1.66-16.9,5.03,3.81-5.17,8.71-9.59,14.22-12.77-.15,2.02-.14,4.15.04,6.16.08,0,1.96-.15,2-.15-.2-2.37-.16-4.78.07-7.15,1.12-.58,2.3-1.13,3.5-1.64-.57,3.43-.61,6.91-.15,10.35l1.99-.25c-1.02-7.18.5-14.54,4.09-20.77Z"></path><path class="cls-1" d="M61.62,47.7h-2.63v13.82c0,1.17.39,2.63.83,2.87h-5.87c.47-.23.86-1.7.86-2.87v-13.82h-2.66c-1.33,0-3.1.39-3.39.83v-3.7h16.25v3.7c-.29-.44-2.06-.83-3.39-.83Z"></path><path class="cls-1" d="M78.03,47.7h-5.9v5.45h4.7c1.17,0,2.63-.39,2.87-.86v4.57c-.23-.44-1.7-.83-2.87-.83h-4.7v5.5h6.83c1.17,0,2.63-.39,2.87-.86v3.73h-14.71c.44-.23.83-1.7.83-2.87v-13.83c0-1.17-.39-2.63-.83-2.87h13.77v3.7c-.23-.44-1.7-.83-2.87-.83Z"></path><path class="cls-1" d="M101.8,47.7v16.7h-4.23l-8.97-13.33v10.46c0,1.17.39,2.63.86,2.87h-4.72c.44-.23.83-1.7.83-2.87v-13.83c0-1.1-.37-2.53-.83-2.87h4.7l9.34,13.93v-11.03c0-1.17-.39-2.66-.86-2.9h4.75c-.47.23-.86,1.7-.86,2.87Z"></path><path class="cls-1" d="M122.71,54.63c0,6.5-4.49,9.74-9.85,9.74h-7.48c.44-.23.83-1.69.83-2.86v-13.77c0-1.17-.39-2.62-.83-2.86h7.48c5.35,0,9.85,3.27,9.85,9.74ZM112.86,61.51c3.17,0,5.61-2.39,5.61-6.89s-2.44-6.88-5.61-6.88h-2.49v13.77h2.49Z"></path><path class="cls-1" d="M136.54,47.7h-5.9v5.45h4.7c1.17,0,2.63-.39,2.87-.86v4.57c-.23-.44-1.7-.83-2.87-.83h-4.7v5.5h6.83c1.17,0,2.63-.39,2.87-.86v3.73h-14.71c.44-.23.83-1.7.83-2.87v-13.83c0-1.17-.39-2.63-.83-2.87h13.77v3.7c-.23-.44-1.7-.83-2.87-.83Z"></path><path class="cls-1" d="M159.47,51.52c0,3.36-1.72,5.34-4.17,6.1l3.49,4.77c.52.81,1.2,1.56,2.01,2.01h-4.46c-.83-.21-1.41-.83-1.95-1.64l-3.39-4.59h-2.74v3.36c0,1.17.39,2.63.86,2.87h-5.86c.44-.23.83-1.69.83-2.87v-13.81c0-1.17-.39-2.63-.83-2.87h8.78c4.2,0,7.43,1.95,7.43,6.67ZM151.67,55.3c1.8-.03,3.54-1.3,3.54-3.78s-1.75-3.81-3.54-3.81h-3.41v7.58h3.41Z"></path><path class="cls-1" d="M187.21,47.68v16.72h-4.23l-8.99-13.35v10.47c0,1.18.39,2.64.86,2.87h-4.73c.44-.24.84-1.7.84-2.87v-13.84c0-1.1-.37-2.53-.84-2.87h4.7l9.35,13.95v-11.05c0-1.18-.39-2.66-.86-2.9h4.75c-.47.24-.86,1.7-.86,2.87Z"></path><path class="cls-1" d="M201.76,47.68h-5.9v5.46h4.7c1.18,0,2.64-.39,2.87-.86v4.57c-.24-.44-1.7-.84-2.87-.84h-4.7v5.51h6.84c1.18,0,2.64-.39,2.87-.86v3.74h-14.73c.44-.24.84-1.7.84-2.87v-13.84c0-1.18-.39-2.64-.84-2.87h13.79v3.71c-.24-.44-1.7-.84-2.87-.84Z"></path><path class="cls-1" d="M208.66,62.73v-4.14c1.09,1.36,3.51,3.18,6.57,3.18,2.8,0,4.17-1.24,4.17-2.8,0-3.97-10.58-1.77-10.58-8.84,0-3.56,3.01-5.43,7.43-5.43,2.32,0,4.9.68,6.54,1.67v3.99c-1.06-1.36-3.33-2.88-5.99-2.88-2.27,0-3.46,1.01-3.46,2.2,0,3.76,10.56,1.67,10.56,8.82,0,3.99-3.38,6.06-8.21,6.06-2.4,0-5.38-.83-7.02-1.82Z"></path><path class="cls-1" d="M238.6,47.68h-2.64v13.84c0,1.18.39,2.64.84,2.87h-5.88c.47-.24.86-1.7.86-2.87v-13.84h-2.66c-1.33,0-3.11.39-3.4.84v-3.71h16.27v3.71c-.29-.44-2.06-.84-3.4-.84Z"></path></g></g></svg>