<svg xmlns="http://www.w3.org/2000/svg" id="Layer_2" viewBox="0 0 189.98 142.91"><defs><style>      .cls-1 {        fill: #fff;      }    </style></defs><g id="Layer_1-2" data-name="Layer_1"><g><g><g><path class="cls-1" d="M0,111.58c0-1.64.71-3.05,2.13-4.22,1.42-1.17,3.34-1.76,5.78-1.76,2.29,0,4.76.58,7.42,1.74v4.26h-.15c-.85-.87-1.62-1.6-2.31-2.2-.69-.6-1.56-1.18-2.6-1.74-1.04-.56-2.01-.84-2.9-.84-1.11,0-2.02.29-2.72.87-.7.58-1.05,1.29-1.05,2.12,0,.97.52,1.78,1.57,2.44,1.04.66,2.62,1.35,4.73,2.09,4.17,1.57,6.26,3.78,6.26,6.64,0,1.97-.77,3.49-2.3,4.55-1.53,1.06-3.41,1.6-5.64,1.6s-4.94-.66-7.96-1.97v-4.41h.18c.75.77,1.34,1.37,1.78,1.78.44.42,1.04.93,1.81,1.54.77.61,1.52,1.06,2.26,1.35.74.29,1.49.44,2.26.44,1.13,0,2.08-.3,2.83-.9.75-.6,1.12-1.41,1.12-2.44,0-1.14-.49-2.06-1.47-2.76-.98-.7-2.46-1.37-4.42-2.03-4.4-1.41-6.6-3.46-6.6-6.15Z"></path><path class="cls-1" d="M19.18,125.76c.18-.52.34-1.01.49-1.45.14-.44.28-1.03.41-1.74.13-.72.2-1.37.2-1.97v-10.3c0-.43-.05-.89-.15-1.39-.1-.5-.21-.92-.33-1.26-.12-.34-.25-.68-.38-1.03-.13-.35-.21-.55-.23-.61v-.12h5.08l6.66,16.1,6.38-16.1h4.71v.12s-.07.3-.21.83c-.14.53-.26,1.1-.36,1.71-.1.61-.15,1.19-.15,1.73v12.13c0,.54.05,1.12.15,1.73.1.61.22,1.18.36,1.71.14.53.21.81.21.83v.12h-5.44v-.12c.49-1.97.73-3.39.73-4.26v-13.03l-6.87,17.41h-1.4v-.03l-.27.03-7.14-17.32c-.02.17-.03.45-.03.84v10.3c0,.6.07,1.26.2,1.97.13.72.27,1.3.41,1.74.14.45.3.93.49,1.46.18.53.28.82.3.86v.15h-4.1v-.15s.12-.33.3-.87Z"></path><path class="cls-1" d="M47.24,121.18l4.59-12.1c.14-.39.21-.78.21-1.19,0-.6-.16-1.24-.49-1.91v-.09h4.74l6.47,16.36c.73,1.91,1.48,3.39,2.25,4.44v.09h-6.29v-.12c.12-.14.18-.59.18-1.36,0-.12,0-.45-.02-1.02-.01-.56-.18-1.26-.5-2.09l-1-2.52h-8.15l-.64,1.68c-.26.68-.4,1.25-.41,1.73-.01.47-.02.78-.02.91,0,.6.04,1.11.12,1.54.08.43.18.79.3,1.1v.15h-3.89v-.09c.77-1.24,1.61-3.08,2.52-5.51ZM49.7,118.45h7.23l-3.71-9.4-3.53,9.4Z"></path><path class="cls-1" d="M67.69,126.66s.07-.29.21-.83c.14-.53.26-1.1.36-1.71.1-.61.15-1.18.15-1.73v-12.13c0-.54-.05-1.12-.15-1.73-.1-.61-.22-1.18-.36-1.71-.14-.53-.21-.81-.21-.83v-.12h9.39c2.15,0,3.87.49,5.17,1.48,1.3.99,1.95,2.31,1.95,3.97s-.54,2.84-1.63,3.76c-1.08.92-2.55,1.47-4.39,1.67,1.84.45,3.21,1.46,4.1,3.05.32.6.7,1.32,1.12,2.15.43.83.75,1.46.99,1.9.23.44.53.91.9,1.42.36.51.76.97,1.19,1.38v.12h-4.83c-.61-.54-1.6-2.35-2.98-5.43-1.09-2.44-2.49-3.84-4.19-4.21h-2.04v5.25c0,.87.24,2.29.73,4.26v.12h-5.47v-.12ZM72.44,116.02h3.19c1.36,0,2.41-.38,3.15-1.13.74-.75,1.11-1.88,1.11-3.37s-.36-2.58-1.06-3.38c-.71-.8-1.72-1.2-3.04-1.2h-3.34v9.08ZM73.17,117.09h.15c-.12,0-.21.01-.27.03.02,0,.06,0,.12-.03Z"></path><path class="cls-1" d="M105.6,105.89v5.19h-.12c-.06-.04-.42-.42-1.08-1.15-.66-.73-1.38-1.38-2.17-1.96-.79-.58-1.54-.87-2.25-.87h-1.64v15.29c0,.87.24,2.29.73,4.26v.12h-5.47v-.12s.07-.29.21-.83c.14-.53.26-1.1.36-1.71.1-.61.15-1.18.15-1.73v-15.29h-1.67c-.71,0-1.46.29-2.25.87-.79.58-1.52,1.23-2.17,1.96-.66.73-1.02,1.11-1.08,1.15h-.12v-5.19h18.57Z"></path><path class="cls-1" d="M109.13,106.01v-.12h5.47v.12c-.49,1.97-.73,3.39-.73,4.26v15.38h3.89c.73,0,1.5-.27,2.31-.8.81-.53,1.57-1.16,2.26-1.87.7-.72,1.06-1.08,1.08-1.1h.15v4.9h-14.44v-.12s.07-.29.21-.83c.14-.53.26-1.1.36-1.71.1-.61.15-1.18.15-1.73v-12.13c0-.54-.05-1.12-.15-1.73-.1-.61-.22-1.18-.36-1.71-.14-.53-.21-.81-.21-.83Z"></path><path class="cls-1" d="M128.34,121.18l4.59-12.1c.14-.39.21-.78.21-1.19,0-.6-.16-1.24-.49-1.91v-.09h4.74l6.47,16.36c.73,1.91,1.48,3.39,2.25,4.44v.09h-6.29v-.12c.12-.14.18-.59.18-1.36,0-.12,0-.45-.02-1.02-.01-.56-.18-1.26-.5-2.09l-1-2.52h-8.15l-.64,1.68c-.26.68-.4,1.25-.41,1.73-.01.47-.02.78-.02.91,0,.6.04,1.11.12,1.54.08.43.18.79.3,1.1v.15h-3.89v-.09c.77-1.24,1.61-3.08,2.52-5.51ZM130.8,118.45h7.23l-3.71-9.4-3.53,9.4Z"></path><path class="cls-1" d="M148.67,126.78v-.15s.1-.3.29-.84c.19-.54.35-1.03.49-1.48.13-.44.26-1.03.4-1.74.13-.72.2-1.37.2-1.97v-9.72c0-.48-.06-1.02-.17-1.6-.11-.58-.23-1.05-.35-1.41-.12-.36-.26-.76-.43-1.2l-.24-.67v-.12h4.92l11.28,15.81v-9.63c0-.6-.07-1.26-.2-1.97-.13-.72-.27-1.3-.41-1.74-.14-.44-.3-.93-.49-1.46s-.28-.82-.3-.86v-.15h4.1v.15c-.02.08-.12.36-.29.86-.17.49-.33.98-.47,1.45-.14.47-.28,1.06-.41,1.77-.13.71-.2,1.36-.2,1.96v14.71h-2.58l-12.4-17.32v11.14c0,.6.07,1.26.2,1.97.13.72.26,1.3.39,1.74.13.45.29.94.49,1.48.19.54.29.82.29.84v.15h-4.1Z"></path><path class="cls-1" d="M171.68,125.82c.14-.52.26-1.09.36-1.7.1-.61.15-1.18.15-1.73v-12.13c0-.54-.05-1.12-.15-1.73-.1-.61-.22-1.18-.36-1.71-.14-.53-.21-.81-.21-.83v-.12h8.12c2.9,0,5.35.97,7.37,2.9,2.02,1.93,3.02,4.42,3.02,7.46s-1.01,5.67-3.02,7.62c-2.02,1.94-4.47,2.92-7.37,2.92h-8.12v-.12s.07-.3.21-.84ZM176.21,125.65h2.28c2.23,0,3.95-.89,5.17-2.68,1.22-1.79,1.82-4.03,1.82-6.72-.02-2.63-.63-4.83-1.84-6.59-1.21-1.76-2.92-2.64-5.15-2.64h-2.28v18.63Z"></path></g><g><path class="cls-1" d="M0,111.58c0-1.64.71-3.05,2.13-4.22,1.42-1.17,3.34-1.76,5.78-1.76,2.29,0,4.76.58,7.42,1.74v4.26h-.15c-.85-.87-1.62-1.6-2.31-2.2-.69-.6-1.56-1.18-2.6-1.74-1.04-.56-2.01-.84-2.9-.84-1.11,0-2.02.29-2.72.87-.7.58-1.05,1.29-1.05,2.12,0,.97.52,1.78,1.57,2.44,1.04.66,2.62,1.35,4.73,2.09,4.17,1.57,6.26,3.78,6.26,6.64,0,1.97-.77,3.49-2.3,4.55-1.53,1.06-3.41,1.6-5.64,1.6s-4.94-.66-7.96-1.97v-4.41h.18c.75.77,1.34,1.37,1.78,1.78.44.42,1.04.93,1.81,1.54.77.61,1.52,1.06,2.26,1.35.74.29,1.49.44,2.26.44,1.13,0,2.08-.3,2.83-.9.75-.6,1.12-1.41,1.12-2.44,0-1.14-.49-2.06-1.47-2.76-.98-.7-2.46-1.37-4.42-2.03-4.4-1.41-6.6-3.46-6.6-6.15Z"></path><path class="cls-1" d="M19.18,125.76c.18-.52.34-1.01.49-1.45.14-.44.28-1.03.41-1.74.13-.72.2-1.37.2-1.97v-10.3c0-.43-.05-.89-.15-1.39-.1-.5-.21-.92-.33-1.26-.12-.34-.25-.68-.38-1.03-.13-.35-.21-.55-.23-.61v-.12h5.08l6.66,16.1,6.38-16.1h4.71v.12s-.07.3-.21.83c-.14.53-.26,1.1-.36,1.71-.1.61-.15,1.19-.15,1.73v12.13c0,.54.05,1.12.15,1.73.1.61.22,1.18.36,1.71.14.53.21.81.21.83v.12h-5.44v-.12c.49-1.97.73-3.39.73-4.26v-13.03l-6.87,17.41h-1.4v-.03l-.27.03-7.14-17.32c-.02.17-.03.45-.03.84v10.3c0,.6.07,1.26.2,1.97.13.72.27,1.3.41,1.74.14.45.3.93.49,1.46.18.53.28.82.3.86v.15h-4.1v-.15s.12-.33.3-.87Z"></path><path class="cls-1" d="M47.24,121.18l4.59-12.1c.14-.39.21-.78.21-1.19,0-.6-.16-1.24-.49-1.91v-.09h4.74l6.47,16.36c.73,1.91,1.48,3.39,2.25,4.44v.09h-6.29v-.12c.12-.14.18-.59.18-1.36,0-.12,0-.45-.02-1.02-.01-.56-.18-1.26-.5-2.09l-1-2.52h-8.15l-.64,1.68c-.26.68-.4,1.25-.41,1.73-.01.47-.02.78-.02.91,0,.6.04,1.11.12,1.54.08.43.18.79.3,1.1v.15h-3.89v-.09c.77-1.24,1.61-3.08,2.52-5.51ZM49.7,118.45h7.23l-3.71-9.4-3.53,9.4Z"></path><path class="cls-1" d="M67.69,126.66s.07-.29.21-.83c.14-.53.26-1.1.36-1.71.1-.61.15-1.18.15-1.73v-12.13c0-.54-.05-1.12-.15-1.73-.1-.61-.22-1.18-.36-1.71-.14-.53-.21-.81-.21-.83v-.12h9.39c2.15,0,3.87.49,5.17,1.48,1.3.99,1.95,2.31,1.95,3.97s-.54,2.84-1.63,3.76c-1.08.92-2.55,1.47-4.39,1.67,1.84.45,3.21,1.46,4.1,3.05.32.6.7,1.32,1.12,2.15.43.83.75,1.46.99,1.9.23.44.53.91.9,1.42.36.51.76.97,1.19,1.38v.12h-4.83c-.61-.54-1.6-2.35-2.98-5.43-1.09-2.44-2.49-3.84-4.19-4.21h-2.04v5.25c0,.87.24,2.29.73,4.26v.12h-5.47v-.12ZM72.44,116.02h3.19c1.36,0,2.41-.38,3.15-1.13.74-.75,1.11-1.88,1.11-3.37s-.36-2.58-1.06-3.38c-.71-.8-1.72-1.2-3.04-1.2h-3.34v9.08ZM73.17,117.09h.15c-.12,0-.21.01-.27.03.02,0,.06,0,.12-.03Z"></path><path class="cls-1" d="M105.6,105.89v5.19h-.12c-.06-.04-.42-.42-1.08-1.15-.66-.73-1.38-1.38-2.17-1.96-.79-.58-1.54-.87-2.25-.87h-1.64v15.29c0,.87.24,2.29.73,4.26v.12h-5.47v-.12s.07-.29.21-.83c.14-.53.26-1.1.36-1.71.1-.61.15-1.18.15-1.73v-15.29h-1.67c-.71,0-1.46.29-2.25.87-.79.58-1.52,1.23-2.17,1.96-.66.73-1.02,1.11-1.08,1.15h-.12v-5.19h18.57Z"></path><path class="cls-1" d="M109.13,106.01v-.12h5.47v.12c-.49,1.97-.73,3.39-.73,4.26v15.38h3.89c.73,0,1.5-.27,2.31-.8.81-.53,1.57-1.16,2.26-1.87.7-.72,1.06-1.08,1.08-1.1h.15v4.9h-14.44v-.12s.07-.29.21-.83c.14-.53.26-1.1.36-1.71.1-.61.15-1.18.15-1.73v-12.13c0-.54-.05-1.12-.15-1.73-.1-.61-.22-1.18-.36-1.71-.14-.53-.21-.81-.21-.83Z"></path><path class="cls-1" d="M128.34,121.18l4.59-12.1c.14-.39.21-.78.21-1.19,0-.6-.16-1.24-.49-1.91v-.09h4.74l6.47,16.36c.73,1.91,1.48,3.39,2.25,4.44v.09h-6.29v-.12c.12-.14.18-.59.18-1.36,0-.12,0-.45-.02-1.02-.01-.56-.18-1.26-.5-2.09l-1-2.52h-8.15l-.64,1.68c-.26.68-.4,1.25-.41,1.73-.01.47-.02.78-.02.91,0,.6.04,1.11.12,1.54.08.43.18.79.3,1.1v.15h-3.89v-.09c.77-1.24,1.61-3.08,2.52-5.51ZM130.8,118.45h7.23l-3.71-9.4-3.53,9.4Z"></path><path class="cls-1" d="M148.67,126.78v-.15s.1-.3.29-.84c.19-.54.35-1.03.49-1.48.13-.44.26-1.03.4-1.74.13-.72.2-1.37.2-1.97v-9.72c0-.48-.06-1.02-.17-1.6-.11-.58-.23-1.05-.35-1.41-.12-.36-.26-.76-.43-1.2l-.24-.67v-.12h4.92l11.28,15.81v-9.63c0-.6-.07-1.26-.2-1.97-.13-.72-.27-1.3-.41-1.74-.14-.44-.3-.93-.49-1.46s-.28-.82-.3-.86v-.15h4.1v.15c-.02.08-.12.36-.29.86-.17.49-.33.98-.47,1.45-.14.47-.28,1.06-.41,1.77-.13.71-.2,1.36-.2,1.96v14.71h-2.58l-12.4-17.32v11.14c0,.6.07,1.26.2,1.97.13.72.26,1.3.39,1.74.13.45.29.94.49,1.48.19.54.29.82.29.84v.15h-4.1Z"></path><path class="cls-1" d="M171.68,125.82c.14-.52.26-1.09.36-1.7.1-.61.15-1.18.15-1.73v-12.13c0-.54-.05-1.12-.15-1.73-.1-.61-.22-1.18-.36-1.71-.14-.53-.21-.81-.21-.83v-.12h8.12c2.9,0,5.35.97,7.37,2.9,2.02,1.93,3.02,4.42,3.02,7.46s-1.01,5.67-3.02,7.62c-2.02,1.94-4.47,2.92-7.37,2.92h-8.12v-.12s.07-.3.21-.84ZM176.21,125.65h2.28c2.23,0,3.95-.89,5.17-2.68,1.22-1.79,1.82-4.03,1.82-6.72-.02-2.63-.63-4.83-1.84-6.59-1.21-1.76-2.92-2.64-5.15-2.64h-2.28v18.63Z"></path></g></g><path class="cls-1" d="M133.39,48.09c0-1.39-.9-2.62-2.24-3.12-4.61-1.71-8.28-5.26-10.05-9.74v-7c-.01-1.39-.91-2.62-2.25-3.12-4.57-1.7-8.21-5.2-10-9.61v-6.91c0-1.21-.68-2.32-1.77-2.91l-10.57-5.69-10.64,5.69c-1.1.59-1.78,1.7-1.78,2.92v6.76c-1.76,4.48-5.43,8.03-10.04,9.75-1.34.5-2.24,1.73-2.24,3.12v7c-1.76,4.48-5.43,8.03-10.04,9.75-1.34.5-2.24,1.73-2.24,3.12v26.95c0,1.21.68,2.33,1.77,2.91l4.37,2.34v-33.15c0-.89.62-1.66,1.51-1.9,1.66-.44,3.21-1.12,4.63-1.99v37.35c0,1.21.68,2.33,1.77,2.91l4.37,2.34V27.29c0-.89.62-1.66,1.51-1.9,1.66-.44,3.21-1.12,4.63-1.99v15.94c0,1.22.69,2.35,1.81,2.93l15.66,8.18c.66.34,1.07,1.01,1.07,1.73l-.04,31.98c0,.72-.4,1.37-1.05,1.72l-5.1,2.72-5.04-2.72c-.64-.35-1.04-1-1.04-1.72v-33.16l-6.26-3.28v38.7c0,1.21.68,2.32,1.77,2.91l10.57,5.69,10.64-5.69c1.1-.59,1.78-1.7,1.78-2.92v-37.65c0-1.23-.7-2.36-1.82-2.94l-15.61-8.1c-.66-.34-1.07-1.01-1.07-1.73V10.87c0-.72.4-1.38,1.05-1.72l5.1-2.72,5.09,2.75c.64.35,1.04,1,1.04,1.72v26.55l6.21,3.23v-17.23c1.41.85,2.95,1.52,4.59,1.95.89.24,1.51,1.01,1.51,1.9l.09,58.59,4.36-2.35c1.09-.59,1.77-1.71,1.77-2.92l-.06-37.35c1.42.86,2.98,1.54,4.63,1.98.89.24,1.51,1.01,1.51,1.9l.07,33.15,4.36-2.35c1.09-.59,1.77-1.71,1.77-2.92l-.06-26.94Z"></path><g><g><g><path class="cls-1" d="M47.25,137.55c.1,0,.17.08.17.17v.69c0,.1-.07.17-.17.17h-2.76v1.08h1.44c.1,0,.16.08.16.17v.66c0,.09-.07.17-.16.17h-1.44v1.1h2.82c.09,0,.17.08.17.17v.69c0,.1-.08.17-.17.17h-3.76c-.1,0-.16-.08-.16-.17v-4.92c0-.09.07-.17.16-.17h3.7Z"></path><path class="cls-1" d="M53.17,138.07c.21.19.13.33.04.41l-.36.38c-.11.11-.25.13-.42,0-.32-.25-.67-.44-1.08-.44-.44,0-.79.19-.79.54,0,.21.13.38.52.5l.99.25c.84.23,1.42.65,1.42,1.52,0,.81-.68,1.67-2.1,1.67-1.01,0-1.68-.38-2.03-.77-.14-.14-.17-.33-.01-.46l.47-.38c.15-.11.27-.05.38.06.29.28.67.54,1.24.54s.84-.28.84-.56c0-.33-.26-.5-.74-.62l-.89-.23c-.8-.2-1.28-.7-1.28-1.46,0-.94.85-1.61,2-1.61.85,0,1.48.32,1.8.62Z"></path><path class="cls-1" d="M55.08,137.72c0-.1.07-.17.16-.17h4.1c.09,0,.16.08.16.17v.69c0,.1-.07.17-.16.17h-1.48v4.05c0,.1-.07.17-.17.17h-.81c-.1,0-.16-.08-.16-.17v-4.05h-1.48c-.09,0-.16-.08-.16-.17v-.69Z"></path><path class="cls-1" d="M61.59,142.66c-.03.08-.08.15-.17.15h-.83c-.12,0-.19-.1-.13-.26l1.67-4.84c.04-.12.13-.17.21-.17h1.17c.08,0,.16.05.21.17l1.68,4.83c.05.17-.02.26-.16.26h-.87c-.08,0-.14-.05-.17-.15l-.35-1.07h-1.93l-.34,1.07ZM62.9,138.66h-.02l-.64,1.98h1.31l-.65-1.98Z"></path><path class="cls-1" d="M69.84,137.55c1.28,0,1.7.74,1.7,1.34,0,.45-.21.87-.68,1.07.68.24.94.79.94,1.3,0,.78-.62,1.55-1.74,1.55h-2.51c-.11,0-.16-.05-.16-.17v-4.93c0-.09.05-.17.16-.17h2.3ZM69.68,138.43h-1.2v1.23h1.2c.47,0,.71-.26.71-.62s-.24-.62-.71-.62ZM68.48,140.49v1.43h1.38c.44,0,.78-.29.78-.72s-.33-.71-.78-.71h-1.38Z"></path><path class="cls-1" d="M77.57,142.63c0,.1-.07.17-.17.17h-3.36c-.1,0-.16-.08-.16-.17v-4.92c0-.1.07-.17.16-.17h.78c.09,0,.17.08.17.17v4.05h2.42c.1,0,.17.08.17.17v.69Z"></path><path class="cls-1" d="M79.71,142.81c-.1,0-.16-.08-.16-.17v-4.92c0-.09.07-.17.16-.17h.78c.1,0,.17.08.17.17v4.92c0,.1-.07.17-.17.17h-.78Z"></path><path class="cls-1" d="M86.63,138.07c.21.19.13.33.04.41l-.36.38c-.11.11-.25.13-.42,0-.32-.25-.67-.44-1.08-.44-.44,0-.79.19-.79.54,0,.21.13.38.53.5l.99.25c.84.23,1.42.65,1.42,1.52,0,.81-.68,1.67-2.1,1.67-1.01,0-1.68-.38-2.03-.77-.14-.14-.17-.33-.01-.46l.47-.38c.15-.11.27-.05.38.06.29.28.67.54,1.24.54s.84-.28.84-.56c0-.33-.26-.5-.74-.62l-.89-.23c-.8-.2-1.28-.7-1.28-1.46,0-.94.85-1.61,2-1.61.85,0,1.48.32,1.8.62Z"></path><path class="cls-1" d="M93.63,142.63c0,.1-.07.17-.16.17h-.78c-.1,0-.17-.08-.17-.17v-1.96h-2.4v1.96c0,.1-.07.17-.17.17h-.78c-.1,0-.16-.08-.16-.17v-4.92c0-.09.07-.17.16-.17h.78c.1,0,.17.08.17.17v1.95h2.4v-1.95c0-.09.07-.17.17-.17h.78c.1,0,.16.08.16.17v4.92Z"></path><path class="cls-1" d="M99.85,137.55c.1,0,.17.08.17.17v.69c0,.1-.07.17-.17.17h-2.76v1.08h1.44c.1,0,.16.08.16.17v.66c0,.09-.07.17-.16.17h-1.44v1.1h2.82c.09,0,.17.08.17.17v.69c0,.1-.08.17-.17.17h-3.76c-.1,0-.16-.08-.16-.17v-4.92c0-.09.07-.17.16-.17h3.7Z"></path><path class="cls-1" d="M104.34,137.55c1.6,0,2.65,1.05,2.65,2.62s-1.05,2.64-2.65,2.64h-2.03c-.1,0-.16-.08-.16-.17v-4.92c0-.09.07-.17.16-.17h2.03ZM104.34,141.77c.89,0,1.49-.7,1.49-1.6s-.6-1.58-1.49-1.58h-1.09v3.18h1.09Z"></path><path class="cls-1" d="M112.21,142.81c-.1,0-.16-.08-.16-.17v-4.92c0-.09.07-.17.16-.17h.78c.1,0,.17.08.17.17v4.92c0,.1-.07.17-.17.17h-.78Z"></path><path class="cls-1" d="M116.62,139.33v3.31c0,.1-.07.17-.16.17h-.78c-.11,0-.16-.05-.16-.17v-4.93c0-.09.07-.17.16-.17h1.01c.1,0,.18.02.24.14l1.99,3.24v-3.21c0-.09.07-.17.16-.17h.78c.09,0,.17.08.17.17v4.93c0,.1-.08.17-.17.17h-.84c-.16,0-.28-.05-.35-.17l-2.05-3.31Z"></path><path class="cls-1" d="M125.34,142.81c-.08,0-.16-.08-.16-.17v-.55c0-.17.08-.26.13-.29l1.43-1.26c.62-.54.99-.92.99-1.38s-.35-.72-.77-.72c-.5,0-.77.39-.89.71-.07.17-.16.25-.33.2l-.55-.17c-.11-.03-.16-.14-.13-.26.18-.75.83-1.47,1.92-1.47,1.03,0,1.84.62,1.84,1.65,0,.79-.61,1.41-1.34,2.04l-.84.71h2.08c.1,0,.16.08.16.17v.63c0,.09-.07.17-.16.17h-3.4Z"></path><path class="cls-1" d="M134.89,140.16c0,1.66-.7,2.75-2.01,2.75s-2.01-1.09-2.01-2.75.7-2.72,2.01-2.72,2.01,1.08,2.01,2.72ZM133.77,140.2c0-1.34-.38-1.83-.89-1.83s-.89.49-.89,1.83.38,1.78.89,1.78.89-.5.89-1.78Z"></path><path class="cls-1" d="M140.91,140.16c0,1.66-.7,2.75-2.01,2.75s-2.01-1.09-2.01-2.75.7-2.72,2.01-2.72,2.01,1.08,2.01,2.72ZM139.78,140.2c0-1.34-.38-1.83-.89-1.83s-.89.49-.89,1.83.38,1.78.89,1.78.89-.5.89-1.78Z"></path><path class="cls-1" d="M142.91,141.44c-.1,0-.17-.08-.17-.17v-.59c0-.14.01-.27.1-.41l1.9-2.58c.05-.09.13-.14.24-.14h1.06c.11,0,.17.08.17.17v2.83h.51c.1,0,.17.08.17.17v.55c0,.09-.07.17-.17.17h-.51v1.19c0,.1-.06.17-.17.17h-.75c-.1,0-.17-.08-.17-.17v-1.19h-2.22ZM145.13,140.55v-1.93l-1.41,1.93h1.41Z"></path></g><g><path class="cls-1" d="M153.14,141.76l-1.3-1.32c-.12-.12-.12-.32,0-.44l1.3-1.32c.12-.12.32-.12.44,0l1.3,1.32c.12.12.12.32,0,.44l-1.3,1.32c-.12.12-.32.12-.44,0Z"></path><path class="cls-1" d="M36.4,141.76l-1.3-1.32c-.12-.12-.12-.32,0-.44l1.3-1.32c.12-.12.32-.12.44,0l1.3,1.32c.12.12.12.32,0,.44l-1.3,1.32c-.12.12-.32.12-.44,0Z"></path></g></g><g><g><path class="cls-1" d="M47.25,137.55c.1,0,.17.08.17.17v.69c0,.1-.07.17-.17.17h-2.76v1.08h1.44c.1,0,.16.08.16.17v.66c0,.09-.07.17-.16.17h-1.44v1.1h2.82c.09,0,.17.08.17.17v.69c0,.1-.08.17-.17.17h-3.76c-.1,0-.16-.08-.16-.17v-4.92c0-.09.07-.17.16-.17h3.7Z"></path><path class="cls-1" d="M53.17,138.07c.21.19.13.33.04.41l-.36.38c-.11.11-.25.13-.42,0-.32-.25-.67-.44-1.08-.44-.44,0-.79.19-.79.54,0,.21.13.38.52.5l.99.25c.84.23,1.42.65,1.42,1.52,0,.81-.68,1.67-2.1,1.67-1.01,0-1.68-.38-2.03-.77-.14-.14-.17-.33-.01-.46l.47-.38c.15-.11.27-.05.38.06.29.28.67.54,1.24.54s.84-.28.84-.56c0-.33-.26-.5-.74-.62l-.89-.23c-.8-.2-1.28-.7-1.28-1.46,0-.94.85-1.61,2-1.61.85,0,1.48.32,1.8.62Z"></path><path class="cls-1" d="M55.08,137.72c0-.1.07-.17.16-.17h4.1c.09,0,.16.08.16.17v.69c0,.1-.07.17-.16.17h-1.48v4.05c0,.1-.07.17-.17.17h-.81c-.1,0-.16-.08-.16-.17v-4.05h-1.48c-.09,0-.16-.08-.16-.17v-.69Z"></path><path class="cls-1" d="M61.59,142.66c-.03.08-.08.15-.17.15h-.83c-.12,0-.19-.1-.13-.26l1.67-4.84c.04-.12.13-.17.21-.17h1.17c.08,0,.16.05.21.17l1.68,4.83c.05.17-.02.26-.16.26h-.87c-.08,0-.14-.05-.17-.15l-.35-1.07h-1.93l-.34,1.07ZM62.9,138.66h-.02l-.64,1.98h1.31l-.65-1.98Z"></path><path class="cls-1" d="M69.84,137.55c1.28,0,1.7.74,1.7,1.34,0,.45-.21.87-.68,1.07.68.24.94.79.94,1.3,0,.78-.62,1.55-1.74,1.55h-2.51c-.11,0-.16-.05-.16-.17v-4.93c0-.09.05-.17.16-.17h2.3ZM69.68,138.43h-1.2v1.23h1.2c.47,0,.71-.26.71-.62s-.24-.62-.71-.62ZM68.48,140.49v1.43h1.38c.44,0,.78-.29.78-.72s-.33-.71-.78-.71h-1.38Z"></path><path class="cls-1" d="M77.57,142.63c0,.1-.07.17-.17.17h-3.36c-.1,0-.16-.08-.16-.17v-4.92c0-.1.07-.17.16-.17h.78c.09,0,.17.08.17.17v4.05h2.42c.1,0,.17.08.17.17v.69Z"></path><path class="cls-1" d="M79.71,142.81c-.1,0-.16-.08-.16-.17v-4.92c0-.09.07-.17.16-.17h.78c.1,0,.17.08.17.17v4.92c0,.1-.07.17-.17.17h-.78Z"></path><path class="cls-1" d="M86.63,138.07c.21.19.13.33.04.41l-.36.38c-.11.11-.25.13-.42,0-.32-.25-.67-.44-1.08-.44-.44,0-.79.19-.79.54,0,.21.13.38.53.5l.99.25c.84.23,1.42.65,1.42,1.52,0,.81-.68,1.67-2.1,1.67-1.01,0-1.68-.38-2.03-.77-.14-.14-.17-.33-.01-.46l.47-.38c.15-.11.27-.05.38.06.29.28.67.54,1.24.54s.84-.28.84-.56c0-.33-.26-.5-.74-.62l-.89-.23c-.8-.2-1.28-.7-1.28-1.46,0-.94.85-1.61,2-1.61.85,0,1.48.32,1.8.62Z"></path><path class="cls-1" d="M93.63,142.63c0,.1-.07.17-.16.17h-.78c-.1,0-.17-.08-.17-.17v-1.96h-2.4v1.96c0,.1-.07.17-.17.17h-.78c-.1,0-.16-.08-.16-.17v-4.92c0-.09.07-.17.16-.17h.78c.1,0,.17.08.17.17v1.95h2.4v-1.95c0-.09.07-.17.17-.17h.78c.1,0,.16.08.16.17v4.92Z"></path><path class="cls-1" d="M99.85,137.55c.1,0,.17.08.17.17v.69c0,.1-.07.17-.17.17h-2.76v1.08h1.44c.1,0,.16.08.16.17v.66c0,.09-.07.17-.16.17h-1.44v1.1h2.82c.09,0,.17.08.17.17v.69c0,.1-.08.17-.17.17h-3.76c-.1,0-.16-.08-.16-.17v-4.92c0-.09.07-.17.16-.17h3.7Z"></path><path class="cls-1" d="M104.34,137.55c1.6,0,2.65,1.05,2.65,2.62s-1.05,2.64-2.65,2.64h-2.03c-.1,0-.16-.08-.16-.17v-4.92c0-.09.07-.17.16-.17h2.03ZM104.34,141.77c.89,0,1.49-.7,1.49-1.6s-.6-1.58-1.49-1.58h-1.09v3.18h1.09Z"></path><path class="cls-1" d="M112.21,142.81c-.1,0-.16-.08-.16-.17v-4.92c0-.09.07-.17.16-.17h.78c.1,0,.17.08.17.17v4.92c0,.1-.07.17-.17.17h-.78Z"></path><path class="cls-1" d="M116.62,139.33v3.31c0,.1-.07.17-.16.17h-.78c-.11,0-.16-.05-.16-.17v-4.93c0-.09.07-.17.16-.17h1.01c.1,0,.18.02.24.14l1.99,3.24v-3.21c0-.09.07-.17.16-.17h.78c.09,0,.17.08.17.17v4.93c0,.1-.08.17-.17.17h-.84c-.16,0-.28-.05-.35-.17l-2.05-3.31Z"></path><path class="cls-1" d="M125.34,142.81c-.08,0-.16-.08-.16-.17v-.55c0-.17.08-.26.13-.29l1.43-1.26c.62-.54.99-.92.99-1.38s-.35-.72-.77-.72c-.5,0-.77.39-.89.71-.07.17-.16.25-.33.2l-.55-.17c-.11-.03-.16-.14-.13-.26.18-.75.83-1.47,1.92-1.47,1.03,0,1.84.62,1.84,1.65,0,.79-.61,1.41-1.34,2.04l-.84.71h2.08c.1,0,.16.08.16.17v.63c0,.09-.07.17-.16.17h-3.4Z"></path><path class="cls-1" d="M134.89,140.16c0,1.66-.7,2.75-2.01,2.75s-2.01-1.09-2.01-2.75.7-2.72,2.01-2.72,2.01,1.08,2.01,2.72ZM133.77,140.2c0-1.34-.38-1.83-.89-1.83s-.89.49-.89,1.83.38,1.78.89,1.78.89-.5.89-1.78Z"></path><path class="cls-1" d="M140.91,140.16c0,1.66-.7,2.75-2.01,2.75s-2.01-1.09-2.01-2.75.7-2.72,2.01-2.72,2.01,1.08,2.01,2.72ZM139.78,140.2c0-1.34-.38-1.83-.89-1.83s-.89.49-.89,1.83.38,1.78.89,1.78.89-.5.89-1.78Z"></path><path class="cls-1" d="M142.91,141.44c-.1,0-.17-.08-.17-.17v-.59c0-.14.01-.27.1-.41l1.9-2.58c.05-.09.13-.14.24-.14h1.06c.11,0,.17.08.17.17v2.83h.51c.1,0,.17.08.17.17v.55c0,.09-.07.17-.17.17h-.51v1.19c0,.1-.06.17-.17.17h-.75c-.1,0-.17-.08-.17-.17v-1.19h-2.22ZM145.13,140.55v-1.93l-1.41,1.93h1.41Z"></path></g><g><path class="cls-1" d="M153.14,141.76l-1.3-1.32c-.12-.12-.12-.32,0-.44l1.3-1.32c.12-.12.32-.12.44,0l1.3,1.32c.12.12.12.32,0,.44l-1.3,1.32c-.12.12-.32.12-.44,0Z"></path><path class="cls-1" d="M36.4,141.76l-1.3-1.32c-.12-.12-.12-.32,0-.44l1.3-1.32c.12-.12.32-.12.44,0l1.3,1.32c.12.12.12.32,0,.44l-1.3,1.32c-.12.12-.32.12-.44,0Z"></path></g></g></g></g></g></svg>