<svg xmlns="http://www.w3.org/2000/svg" id="Layer_2" viewBox="0 0 160.03 150"><defs><style>      .cls-1 {        fill: #fff;      }    </style></defs><g id="Layer_1-2" data-name="Layer_1"><g><path class="cls-1" d="M159.73,53.78c-.23.3-.58.5-.96.55l-8.61,1.13c-.39.05-.78-.06-1.09-.3-.31-.24-.5-.6-.54-.99-.15-1.64-1.13-3.03-2.61-3.73-2.29-1.07-5.02-.09-6.1,2.2-.4.85-.53,1.79-.37,2.71.07.39-.03.78-.26,1.1-.23.31-.59.52-.97.57l-29.83,3.92c-.06,0-.13.01-.19.01-.47,0-.92-.23-1.19-.62-.31-.45-.34-1.03-.08-1.5l4.73-8.79c.31-.59.99-.88,1.63-.71,1.06.28,2.18-.25,2.64-1.24.42-.9.2-2-.54-2.67-.49-.44-.62-1.17-.3-1.76l7.64-14.2c.26-.49.79-.79,1.35-.76.56.03,1.05.38,1.26.89.44,1.06,1.25,1.92,2.28,2.4,1.11.52,2.35.58,3.51.16,1.15-.42,2.07-1.25,2.59-2.36.52-1.11.58-2.35.16-3.51-.42-1.15-1.26-2.07-2.37-2.59-.88-.41-1.86-.53-2.82-.34-.55.11-1.11-.11-1.44-.56-.33-.45-.37-1.05-.11-1.54l3.86-7.16c.18-.34.49-.59.86-.7.37-.11.76-.07,1.1.11,11.39,6.13,20.07,16.21,24.43,28.38,1.26,3.5,2.14,7.14,2.62,10.83.05.38-.05.76-.29,1.07Z"></path><g><path class="cls-1" d="M141.86,94.92c-2.05.6-1.91,2.92-2.73,4.59-9.3,24.87-31.37,42.2-57.46,45.41-28.8,3.48-56.25-10.43-70.24-35.3-1.16-1.66-1.35-4.03-3.47-4.2-6,.49,1.65,9.46,3.15,12.2,13.65,19.98,37.63,32.55,61.81,32.37,30.9.16,59.9-19.65,70.59-49.25,1.01-2.19,2.18-6.24-1.64-5.83Z"></path><path class="cls-1" d="M106.14,102.03c-.71-.38-1.59-.28-2.23.21-9.93,7.55-15.96,12.81-30.86,13.06-13.22-.08-21.71-4.96-31.54-13.84-.73-.66-1.8-.88-2.69-.46-5.55,2.66,15.26,19.66,34.12,18.83,6.63-.02,13.02-1.39,18.94-4.05,1.94-.54,19.69-10.87,14.26-13.75Z"></path><path class="cls-1" d="M40.12,118.23l2.19,1.66c.72.44.99-.04,1.39-.66.35-.53.44-1.07.02-1.6-.52-.64-1.29-1.02-1.94-1.52-.23-.18-2.33-1.88-2.57-1.56-.83,1.11-1.66,2.21-2.49,3.32-1.42,1.89-2.92,3.75-4.27,5.71,0,0-.46.6-.46.6-.71.95,1.21,2.57,1.96,1.68.25-.3.58-.7.99-1.24.17-.19.71-.9,1.63-2.12.23-.24.4-.47.65-.12,1.56,1.5,2.29.64,2.86-.53.18-.4.11-.72-.2-.98-.2-.18-1.12-.93-1.17-.96.07-.55.98-1.76,1.41-1.68Z"></path><path class="cls-1" d="M43.89,132.93c.42.29,1.34.58,1.57.65.67.21.9-.31,1.04-.87.43-1.66.75-3.37,1.28-4.99.48-1.47,1.05-2.91,1.39-4.42.15-.65.34-1.38.2-2.04-.08-.37-.34-.65-.66-.88-.39-.27-.89-.45-1.28-.59-.54-.19-.85-.03-1.28.47.16.41-9.15,8.3-8.02,9.22.63.47,1,.61,1.35.79,1.01.43,1.67-1.01,2.07-1.26.09-.13.31-.4.67-.8,0,0,2.25,1.25,2.25,1.25.04.02-.45,1.54-.52,1.78-.11.39-.53,1.39-.08,1.7ZM43.88,126.37c2.06-2.06,2.23-2.5,1.32.73l-1.32-.73Z"></path><path class="cls-1" d="M55.84,126.5c.63.36,1.5,1.48,1.91,1.78.37.23.75.13,1.14-.29.37-.43.49-.9.34-1.42-2.35-5.01-9.28-2.63-6.67,3.04.81,1.65,1.93,3.28,1.54,4.07-.78,1.3-2.74-1.4-3.19-1.56-6.74,3.03,11.02,9.65,4.65-2.33-.91-1.33-1.56-3.82.28-3.3Z"></path><path class="cls-1" d="M61.75,138.72c.85.07,1.77.77,1.92-.52l1.47-8.79c.46-.9,1.46.09,2.12-.23,2.02-2.97-1.11-2.59-3.06-3.06-.97-.2-1.79-.34-2.5-.42-1.59-.34-1.05,1-1.3,1.53-.35,1.31,1.52,1,2.04,1.31.24.58-2.49,10.45-.69,10.18Z"></path><path class="cls-1" d="M78.15,129.16c.24-.15.89-.09,1.17-.11.59-.06,1.18-.1,1.77-.19.15-.02.32-.06.4-.19.05-.08.05-.17.05-.26,0-.6.03-1.59-.55-1.95-.54-.33-1.38-.12-1.97-.06-.8.08-1.61.17-2.41.27-1.02.12-1.63.27-1.61.41.12,1.24.25,2.48.37,3.72.16,1.56.31,3.11.47,4.67.08.76.2,1.56.2,2.33.04.55.02,1.14.31,1.63.25.43.83.44,1.27.4.33-.03.42-.04.67-.12.32-.07.52-.3.51-.75-.06-1.42-.21-2.83-.35-4.25,0-.33-.02-.62.4-.52.77.02,1.77-.1,1.92-1.01.11-.67-.13-1.94-1-1.9-.28,0-1.44.07-1.51.09-.32-.45-.47-1.96-.09-2.19Z"></path><path class="cls-1" d="M84.2,126.39c-2.37,3.23-.8,9.15,2.68,10.75,11.54,3.39,6.43-19.13-2.68-10.75ZM89.6,134.79c-2.79.68-4.14-3.44-3.78-5.44.49-3.03,3.59-2.66,4.56.01.9,2.06.91,5.01-.78,5.43Z"></path><path class="cls-1" d="M99.57,132.9c12.01.85,2.22-20.04-4.89-9.94-1.63,3.68,1.14,9.1,4.89,9.94ZM101.35,124.55c1.31,1.83,1.95,4.7.38,5.47-2.6,1.24-4.77-2.49-4.84-4.52-.16-3.07,2.94-3.36,4.46-.95Z"></path><path class="cls-1" d="M111.44,127.42l1.95-1.53c4.69-4.45-3.13-14.08-8.46-10.19v-.02s-1.87,1.49-1.87,1.49c-.59.44-1,.83-.67,1.55l7.19,8.88c.66.67,1.13.48,1.87-.18ZM106.63,118c.94-.65,2.3-.32,3.34.6,1.55,1.29,2.7,3.72,1.55,4.88l-1.03.85-4.62-5.73.76-.61Z"></path><path class="cls-1" d="M39.68,71.65c.08-.22-.11-.46-.34-.42-1.87.29-3.99.56-6.09,1-13.7,34.29-33.87,22.2-23.72,9.16,10.45-10.48,26.53-10.34,40.21-13.38l2.96-6.22c-6.21,1.92-12.93,2.5-19.61,3.63-66.08,11.31-16.7,69.21,6.58,6.23Z"></path><path class="cls-1" d="M25.32,112.91c.12,3.68,5.61,3.86,5.77,0-.12-3.68-5.61-3.86-5.77,0Z"></path><path class="cls-1" d="M115.98,111.26c.12,3.68,5.61,3.86,5.77,0-.12-3.68-5.61-3.86-5.77,0Z"></path><path class="cls-1" d="M91.59,58.11c-.78.99-1.89,1.63-3.01,2.16-.95.45-2,.78-2.88,1.38-.72.49-.98,1.32-.57,2.11.42.79,1.29,1.28,2.2,1.13,0,0,.01,0,.02,0,.82-.14,1.6-.3,2.37-.62.84-.35,1.63-.8,2.37-1.32,1.54-1.08,2.88-2.47,3.88-4.06.91-1.45,1.56-3.15,1.47-4.88-.11-2.2-1.55-4.33-3.73-4.9-1.58-.41-3.24.06-4.51,1.04-1.6,1.25-2.64,3.39-1.98,5.39.42,1.28,1.83,3.15,3.34,2.18.98-.63,1.23-2.3,1.01-3.43-.13-.67.67-1.11.98-.46.32.68.12,1.79-.07,2.5-.17.65-.48,1.27-.9,1.8Z"></path><path class="cls-1" d="M120.18,74.83c-.64.73-1.77.28-1.14-.63,4.67-5.62-1.95-8.79-6.38-4.23-4.25,3.08-7.45,11.06-8.86,9.61-.24-1.72,3.36-5.23,4.35-7.18.91-2.01.47-4.04-1.78-4.57-2.56-.42-3.99,1.97-5.06,3.89-1.55,2.78-3.51,5.29-5.48,7.78-2.26,2.85-4.55,5.66-7.04,8.31-3.57,3.51-7.62,5.48-12.61,5.09-9.51-2.27,2.47-19.06,8.04-19.36.77-.1,1.74.17,1.35,1.44-1.4,3.07-5.01,5.89-8.84,6.31-.84,1.3-1.81,3.09-2.31,4.92,27.36-2.67,19.48-38.13-9.18-2.4-3.04,3.09-4.99,5.9-9.12,7.83-9.83,3.59-1.31-19.32.18-22.16.25-.47.39-1.03.61-1.52.39-.85.82-1.68,1.25-2.51,1.18-2.25,2.43-4.47,3.72-6.66,1.33-2.26,2.7-4.5,4.17-6.68.94-1.39,1.91-3.01,3.22-4.1.91-.76,1.16.46.75,1.11-.64,1.03-1.49,1.97-2.2,2.95-1.43,1.98-2.78,4.01-4.05,6.1-1.14,1.87-2.21,3.79-3.22,5.73-.05.1.06.2.15.14,5.35-3.49,10.56-8.6,13.52-14.7,2.95-5.54.37-11.03-5.46-7.73-6.75,4.8-11.07,13.11-14.91,20.43-19.98,40.73.72,39.49,10.16,30.52,2.62-1.93,3.52-.63,3.79.02.46,1.54,1.34,2.91,2.82,3.91,3.01,2.01,7.1,1.87,10.49,1.15,5.54-1.19,10.57-4.34,13.54-9.03h0c1.76-2.77,2.34-1.14,1.66.56-.55,1.37-1.1,2.75-1.69,4.36-1.17,3.21,2.38,5.09,4.63,2.85,1.43-1.42,2.25-3.31,3.16-5.08,1.57-3.07,3.55-5.91,5.54-8.72.94-1.33,1.91-2.65,2.92-3.94.79-1.01,2.33-3.8,4-3.34.63.17.49.94.38,1.43-.58,2.57-1.98,5.06-3.29,7.3-1.5,2.56-3.02,5.04-4.54,7.59-.37.63-.68,1.26-.97,1.91-.52,1.16-.29,3.04,1.35,3.74,3.41,1.46,5.75-3.79,6.91-6.08,1.36-2.69,2.65-5.21,4.27-7.75,1.58-2.47,3.29-4.9,5.59-6.76,2.83-2.29,1.89,1.1.51,2.78-2.52,3.53-4.84,6.56-5.61,10.79-.23,3.57,1.05,7.13,5.08,7.34,6.58.35,12.18-5.46,15.83-10.28,4.49-5.93,6.95-13.2,6.99-20.68.02-3.99-.61-8.71-3.75-7.16-1.37.68-1.91,1.56-1.48,3.73.65,5.31.15,10.8-2.2,15.66-1.34,2.76-3.27,5.15-5.4,7.34-1.99,2.03-4.29,4.74-7.06,5.65-1.76.58-2.5-.86-1.81-2.5,2.32-5.5,7.17-10.15,8.71-16.19,1.47-5.12-3.19-6.28-6.61-4.79-3.04,1.26-5.33,3.9-7.57,6.46Z"></path><path class="cls-1" d="M14.14,59.09c4.53-3.28,7-10.16,8.11-13.59,2.7-9.51,12.37-16.16,17.02-8.64,3.39,7.52-1.72,21.57-2.89,26.63,1.78-.31,4.05-.6,6.22-.91.76-.11,1.43-4.63,1.61-5.33,1.06-4.27,1.93-8.65,2-13.06.06-3.74-.41-7.77-2.45-11-2.96-4.69-8.99-5.74-13.96-3.95-5.36,1.93-8.95,5.91-11.73,11.99-1.44,3.14-2.11,6.49-3.93,9.47-.8,1.31-4.61,7.29-6.39,3.92-.88-1.66-.09-4.18.41-5.83.63-2.07,1.54-4.04,2.44-6,5.47-11.83,15.48-21.45,26.62-28,10.4-6.11,22.39-9.78,34.49-9.79,11.65.51,26.85.93,47.61,16.96,2.48,1.45,5.02-2.2,2.72-4.1C78.01-16.77,25.12,3.37,5.75,40.78c-8.38,15.97-.75,23.84,8.4,18.31Z"></path></g></g></g></svg>