<svg xmlns="http://www.w3.org/2000/svg" id="Layer_2" viewBox="0 0 258.79 90.93"><defs><style>      .cls-1 {        fill: #fff;      }    </style></defs><g id="Layer_1-2" data-name="Layer_1"><g><g><path class="cls-1" d="M139.66,50.69c-.44.94-.94,2.02-1.55,3.27-.07.13-.13.27-.2.4-1.18,2.46-2.66,5.53-4.45,9.21-2.8,5.77-4.96,10.12-6.44,13.02h-7.25l-7.99-15.68-.2.13c.17,1.62-.1,3.2-.88,4.79l-5.19,10.73h-8.43c1.35-2.9,3.44-7.25,6.24-13.02,2.8-5.77,4.92-9.98,6.37-12.88h7.25l8.06,15.41.24-.13c-.13-1.65.2-3.34,1.01-4.99l3.27-6.68v-.03l1.79-3.61,8.36.07h0ZM171.81,53.56c-.07-.37-.17-.71-.34-1.01-.71-1.28-2.63-1.72-5.73-1.82-3.04-.13-22.56,0-22.56.03-.54.98-1.11,2.02-1.69,3.14-.1.2-.2.37-.3.57-.88,1.65-1.82,3.44-2.83,5.46-1.79,3.61-3.1,6.31-3.88,8.09-1.11,2.63-1.15,4.72-.07,6.24,1.08,1.52,3.24,2.36,6.51,2.56.98.03,2.73.03,5.26.03s4.35,0,5.43-.03c3.37-.13,6.31-.98,8.84-2.53,2.53-1.55,4.35-3.51,5.53-5.94l3.61-7.45h-11.94c-2.02,0-3.98.03-5.87.07l-3,6.21c1.72.03,3.37.07,4.99.07h.98c1.55,0,2.93-.61,4.15-1.85h.13l-.84,1.75c-.37.78-.98,1.42-1.85,1.99-.84.54-1.72.84-2.63.84h-9.31c-.84,0-1.35-.2-1.52-.61s-.07-.98.34-1.79l5.06-10.42h12.28c.81,0,1.28.13,1.45.4s.1.67-.17,1.28l-.1.17h8.63l.51-1.05c.51-1.05.84-1.99.98-2.8.03-.64.03-1.18-.03-1.62h0ZM94.47,76.59h-5.36c-2.19,0-3.98-1.69-4.18-3.84l-.57-6.95-.51-6.31c0-.07-.07-.13-.13-.13-.1,0-17.94,17.23-17.94,17.23h-33.73c-2.6-.27-4.35-1.21-5.3-2.56-.88-1.21-.51-4.65-.51-4.65l37.5-.07,20.51-18.79h7.29l2.66,23.81.27,2.26h0ZM66.27,55.28c-.03.71-.2,1.42-.54,2.06-.94,1.89-3.58,7.12-4.59,9.11h-8.5l3.17-6.34c.64-1.28-.3-2.8-1.72-2.8h-11.77c-1.62,0-1.85.24-2.56,1.69l-3.31,7.45H13.79l-4.82,10.08H.57c1.35-2.9,3.44-7.39,6.24-13.19,2.8-5.77,4.89-9.98,6.37-12.88h8.43l-5.94,12.11h.13c.91-1.21,1.79-2.06,2.6-2.53.84-.47,1.75-.67,2.8-.67h9.81l2.39-4.96c1.21-2.5,3.74-3.95,6.51-3.95h20.67c2.8,0,3.84.94,4.76,2.09.64.78.91,1.69.91,2.73h0ZM97.78,44.25c.1.27.17.54.27.81h-10.49l-3.41-9.48h-4.92l-4.62,9.48h-8.43c1.35-2.9,3.44-7.25,6.24-13.05,2.8-5.77,4.92-10.12,6.41-13.02h8.43l-6.07,12.55h.13c.91-1.21,1.72-2.06,2.46-2.5s1.59-.67,2.53-.67h1.48l11.8-9.38h9.68c-7.25,5.77-12.61,9.92-16.05,12.51,1.25,2.97,2.73,7.22,4.55,12.75h0ZM135.31,18.99l-4.38,9.04h-9.81c-1.05,0-1.99.24-2.8.67-.84.47-1.69,1.32-2.63,2.5h-.13l5.94-12.24h-8.43c-1.45,2.9-3.58,7.25-6.41,13.02-2.8,5.77-4.89,10.12-6.24,13.02h8.43l4.82-9.95h13.86l-4.82,9.95h8.36c1.28-2.53,3.1-6.17,5.4-10.89.03-.07.07-.13.1-.24.3-.61.61-1.25.94-1.92,2.8-5.77,4.86-10.12,6.21-13.02l-8.4.07h0ZM170.63,34l-.07-.71-1.59-14.3h-7.29l-15.85,14.64-.44.4-9.58,8.87-2.33,2.16h9.75l3.04-2.93v-.03l6.98-6.85,1.32-1.28.54-.54,5.4-5.3c.1-.1.24-.17.34-.24.13-.07.27-.07.4-.07l.44,5.53.07.61.03.3.57,6.95c.17,2.16,1.99,3.84,4.15,3.84h5.36l-1.25-11.06h0Z"></path><path class="cls-1" d="M180.78,90.93c-7.62,0-9.71-.07-12.58-.13-3.37-.1-7.96-.2-24.49-.3,0,0-9.78-.03-19.53-.07-4.89-.03-9.78-.03-13.42-.07-1.82,0-3.37-.03-4.42-.03-1.35,0-2.02-.13-2.02-.37,0-.34.3-.37.64-.37.2,0,.51,0,.88-.03.78,0,1.89-.03,3.24-.07,2.73-.03,6.51-.1,10.66-.17,9.85-.13,18.85-.27,24.01-.3,12.68-.1,19.43-.24,25.36-.34,6.1-.13,11.4-.24,21.38-.24,3,0,6.31,0,10.05.03h1.72c.34,0,.61,0,.88-.03.44-.44.3-1.65-.37-3.31-1.05-2.39-2.7-4.55-4.65-6.07-.94-.71-1.79-1.11-2.63-1.28-.13-.03-.27-.03-.44-.03h-.3c-7.25-.27-13.56-.67-19.26-1.15-.2,0-.34-.17-.34-.37s.17-.34.34-.34h20.27c3.27,0,3.54.07,3.64.1,3.31.71,5.87,3.54,7.45,5.8,0,0,0,.03.03.03,1.15,1.69,3.54,5.87,1.48,8.16-.2.24-.64.61-1.21.74-.51.07-1.65.1-3.61.1h-2.73l-6.17.03c-5.87.07-10.42.07-13.86.07h0ZM255.79,90.93c-.2,0-.34-.17-.34-.34v-35.48c0-7.69-2.7-13.59-5.23-16.56-1.72-2.02-3.04-2.29-3.98-2.29-.24,0-.47.03-.67.03s-.37.03-.57.03c-2.6,0-4.25,1.59-5.03,2.53-1.15,1.45-2.26,2.26-3.64,2.66h-.07c-8.26.98-13.05,3-16.22,4.35-.74.3-1.38.57-1.96.81-.13.03-.27.07-.4.07-.4,0-.81-.27-1.01-.64-.17-.4-.13-.84.17-1.18,11.03-13.05,15.51-13.63,22.33-14.5l.78-.1c.74-.1,1.45-.13,2.16-.13,4.92,0,7.45,2.5,9.51,4.45,0,0,0,.03.03.03,5.9,5.77,7.15,14.13,7.15,20.14,0,3.84-.3,12.85-.74,20.74-.91,15.38-1.72,15.38-2.26,15.38h0ZM223.65,88.26h-.24c-.13-.03-.27-.13-.3-.27s0-.27.1-.37c.2-.17,1.38-.57,5.56-1.89,3.24-1.05,6.91-2.19,7.89-2.66.71-.47,3-8.57,2.63-10.08-.17-.67-.64-.71-1.52-.74h-.2c-.84,0-23.34,2.53-24.32,2.7-.54.13-1.05.34-1.48.64-.27.2-.54.44-.81.71-.17.17-.34.3-.51.47-.07.07-.13.07-.24.07s-.17-.03-.24-.07c-.13-.1-.17-.3-.07-.44l.07-.1c.3-.54.61-1.08,1.08-1.55.98-.94,2.36-1.21,3.61-1.45.13-.03.3-.07.44-.07l.51-.1c6-1.21,12.21-2.46,18.38-3.07,1.92-.2,3.54-.27,5.09-.27h1.18c1.38,0,2.8.13,3.64,1.08.81.91.88,2.12.94,3.1v.03c.1,2.02-1.21,9.44-2.43,10.89-1.05,1.15-17.3,3.44-18.79,3.44h0ZM182.09,69.92c-.2,0-.34-.17-.34-.34,0-.2.13-.34.34-.37,5.67-.44,12.75-1.18,15.89-1.82,2.6-.54,4.01-3.17,4.79-4.59,1.28-2.39,3.04-6.81.17-9.38-.34-.3-.74-.57-1.18-.78h0c-.34-.13-1.32-.3-4.25-.3-3.95,0-10.39.27-19.09.84-1.01.07-2.43,1.42-3.81,2.77-.07.07-.17.1-.24.1s-.17-.03-.24-.07c-.13-.13-.17-.3-.07-.47,1.18-1.75,2.43-3.44,3.88-3.58l1.82-.17c4.32-.4,9.21-.88,13.49-1.21.44-.03.88-.07,1.32-.1l.34-.03c1.62-.13,3.27-.27,4.92-.27,2.63,0,4.65.34,6.41,1.01,3.61,1.48,4.18,4.86,3.58,7.32-.94,3.81-2.5,6.64-4.72,8.7-1.85,1.69-4.38,2.02-6.41,2.16-6.07.4-11.5.57-16.59.57h0ZM232.21,58.58c-.88,0-1.75-.07-2.56-.24-.91-.17-1.85-.44-2.83-.78l.24-.67c.57.2,1.25.3,2.02.3.64,0,1.38-.07,2.09-.24,1.32-.27,2.66-.81,4.08-1.69,1.55-.94,2.53-1.92,3.14-3.1.4-.81.71-1.72.88-2.63.1-.47.13-.98.17-1.45v-.2c0-.2.03-.47-.03-.64-.44,0-1.59.13-3.24.34.74,1.42.81,3.17.13,4.72-1.25,2.83-4.42,3.84-6.71,3.84h-.4c-1.75-.1-3.34-.88-4.86-1.62-.47-.24-.94-.47-1.38-.67-.17-.07-.24-.27-.2-.44.07-.13.17-.24.34-.24h.07c.57.13,1.11.3,1.65.47.27.07.54.17.84.24,1.18.34,2.16.57,3.17.57.3,0,.61-.03.91-.07,1.25-.2,2.93-.74,3.95-2.16.84-1.11,1.01-2.97-.1-3.98l-.3-.3c-7.52,1.08-14.87,2.36-15.45,2.73-.57.44-1.01,1.08-1.45,1.69-.1.17-.24.34-.37.51l-1.89,2.5-.13.17c-.54.67-1.35,1.69-1.85,2.29-.07.07-.17.13-.27.13-.07,0-.13-.03-.2-.07-.17-.1-.2-.3-.1-.47.84-1.45,2.09-3.54,3.2-5.36l.03-.07c.64-1.08,1.28-2.19,2.43-2.9.74-.47,6.85-1.82,11.8-2.83,4.96-1.01,10.93-2.16,11.47-2.16h.1c1.15.27,2.06,1.08,2.73,1.79.78.81,1.55,1.62,2.02,2.56.61,1.25.71,2.7.3,4.08v.03c-.17.54-.47,1.05-.94,1.55-.34.34-.71.64-1.15.98-1.79,1.25-3.98,2.23-6.58,2.87-1.72.37-3.27.57-4.76.61h0ZM253.8,34.57c-.13,0-.24-.07-.3-.2-.07-.17-.03-.34.1-.44.27-.2.44-.54.54-.84.71-1.92.81-5.87.17-7.86-.07-.13-.17-.27-.34-.4l-.03-.03c-.84-.57-1.85-1.01-2.87-1.45l-.2-.1c-3.17-1.38-6.44-2.63-8.94-3.54-.44-.17-.84-.3-1.28-.47-.17-.07-.3-.1-.47-.17.24.64.47,1.32.67,1.96.54,1.89.61,4.01.24,6.31-.03.17-.17.3-.34.3h0c-.17,0-.34-.13-.34-.3-.27-2.63-.67-4.76-1.82-6.64-.3-.54-.94-1.55-1.21-2.06l-.07-.13c-.13-.24-.27-.47-.34-.78-.17-.57.07-1.28.54-1.65.3-.24.64-.37,1.01-.37h.13c.34.03.51.1.71.17.07.03.1.03.17.07.27.1.54.17.81.27l.24.07c3.2.94,6.34,2.09,9.27,3.34,1.55.67,3.04,1.38,4.52,2.26.44.27,1.01.64,1.52,1.08v.03c.88.78,1.08,2.33,1.08,3.51,0,2.63-.94,6.41-2.36,7.62-.2.17-.4.34-.64.4-.1.07-.13.07-.17.07h0ZM226.68,31.7c-13.15-1.52-29.92-2.43-49.78-2.7-.2,0-.34-.17-.34-.34,0-.2.17-.34.34-.37.3,0,31.2-1.01,49.44-1.35-3.81-8.57-7.76-15.75-9.85-18.82l-.03-.07c-1.08-1.59-1.99-2.93-3.78-3.1-14.81-1.62-32.14-2.33-56.19-2.33-5.87,0-12.24.03-19.49.13h0c-.2,0-.34-.13-.34-.34s.13-.37.34-.37c17.2-1.38,33.93-2.06,51.13-2.06,9.65,0,18.08.2,24.32.4,4.25.13,6.37,1.89,7.62,3.24t.07.07c4.18,5.77,9.11,14,14.67,24.42.07.1.07.2,0,.3-.03.1-.13.17-.24.2-1.82.44-3.88,1.38-6.07,2.39-.51.24-1.05.47-1.59.71-.03.03-.1.03-.13.03q-.07-.07-.1-.07h0Z"></path><g><path class="cls-1" d="M2.46,85.3h.91c.78,1.55,1.65,3.27,2.43,4.86h-.88l-.51-1.01H1.42l-.51,1.01h-.91c.81-1.59,1.69-3.31,2.46-4.86h0ZM2.97,86.11h-.1l-1.21,2.5h0c.13-.17.3-.24.57-.24h1.82l-1.08-2.26h0Z"></path><path class="cls-1" d="M9.75,87.72c0-.81,0-1.62.03-2.43h.78v4.42h.03c.1-.24.3-.34.57-.34h1.52c.57,0,.84-.34.84-.94v-3.14h.78c.03.78.07,1.55.03,3.27,0,.91-.51,1.55-1.75,1.55h-2.83v-2.39h0Z"></path><path class="cls-1" d="M20.24,87.72v-1.69c-.61,0-1.21,0-1.82-.03v-.71h4.45v.71c-.64.03-1.25.03-1.85.03h-.2c.17.1.24.3.24.54v1.15c0,.81,0,1.62-.03,2.43h-.78v-2.43h0Z"></path><path class="cls-1" d="M26.91,88.57c-.03-.84-.03-1.65,0-3.27,1.25-.03,2.93-.03,3.24-.03,1.01.07,1.55.67,1.55,1.59.03.78.03.94,0,1.72-.03.88-.54,1.52-1.55,1.59h-1.69c-.98-.07-1.48-.71-1.55-1.59ZM30.08,89.41c.61,0,.88-.37.88-.98v-1.42c0-.61-.27-.98-.88-.98h-2.36v2.39c0,.61.27.98.88.98h1.48Z"></path><path class="cls-1" d="M41.05,88.67v-.1h.78v.1c0,.51.27.81.84.81h1.62c.51,0,.67-.34.67-.67,0-.37-.13-.67-.71-.67h-1.75c-1.11,0-1.35-.74-1.35-1.42,0-.57,0-.94.03-1.35,1.21-.03,2.77-.03,3.1-.03.98.03,1.28.67,1.32,1.32v.24h-.78v-.13c0-.37-.13-.67-.67-.67h-2.19v.61c0,.47.17.71.64.71h1.79c1.15,0,1.42.81,1.38,1.42-.03.67-.37,1.38-1.35,1.45h-1.85c-1.01-.13-1.52-.64-1.52-1.59h0Z"></path><path class="cls-1" d="M50.08,87.72c0-.81,0-1.62.03-2.43h3.91v.71c-.71.03-1.35.03-2.19.03h-.94v1.62h.03c.1-.2.3-.3.57-.3h2.39v.67h-3v1.35h.98c.84,0,1.52,0,2.19.03v.74h-3.91c-.07-.84-.07-1.62-.07-2.43h0Z"></path><path class="cls-1" d="M58.25,87.72c0-.81,0-1.62.03-2.43h4.49c.03.4.03.67.03,1.42,0,.61-.34.98-.64,1.15.47.2.67.57.67,1.05v1.21h-.78v-1.08c0-.37-.2-.67-.64-.67h-2.33v1.75h-.78c-.03-.78-.03-1.59-.07-2.39h0ZM59.09,87.96c.1-.2.3-.3.57-.3h1.52c.64,0,.81-.37.81-.81v-.81h-2.93l.03,1.92h0Z"></path><path class="cls-1" d="M66.64,85.3h.91l1.89,4.15.03-.03c0-.17.03-.3.1-.47l1.65-3.68h.91c-.71,1.59-1.55,3.34-2.29,4.86h-.88c-.78-1.48-1.62-3.27-2.33-4.82h0Z"></path><path class="cls-1" d="M76.02,87.72v-2.43h.78v4.86h-.78v-2.43Z"></path><path class="cls-1" d="M81.18,88.57c-.03-.84-.03-1.65.03-3.27,1.28-.03,2.87-.03,3.17-.03.98.03,1.35.67,1.38,1.55v.2h-.78v-.1c0-.54-.2-.88-.74-.88h-2.23v2.43c0,.61.27.98.91.98h1.25c.57,0,.84-.34.84-.88v-.3h.81v.44c0,.88-.51,1.45-1.55,1.52-.34.03-1.11.03-1.45,0-1.08-.1-1.62-.74-1.65-1.65h0Z"></path><path class="cls-1" d="M90.09,87.72c0-.81,0-1.62.03-2.43h3.91v.71c-.71.03-1.35.03-2.19.03h-.94v1.62h.03c.1-.2.3-.3.57-.3h2.39v.67h-3v1.35h.98c.84,0,1.52,0,2.19.03v.74h-3.91c-.07-.84-.07-1.62-.07-2.43h0Z"></path></g></g><g><path class="cls-1" d="M139.66,50.69c-.44.94-.94,2.02-1.55,3.27-.07.13-.13.27-.2.4-1.18,2.46-2.66,5.53-4.45,9.21-2.8,5.77-4.96,10.12-6.44,13.02h-7.25l-7.99-15.68-.2.13c.17,1.62-.1,3.2-.88,4.79l-5.19,10.73h-8.43c1.35-2.9,3.44-7.25,6.24-13.02,2.8-5.77,4.92-9.98,6.37-12.88h7.25l8.06,15.41.24-.13c-.13-1.65.2-3.34,1.01-4.99l3.27-6.68v-.03l1.79-3.61,8.36.07h0ZM171.81,53.56c-.07-.37-.17-.71-.34-1.01-.71-1.28-2.63-1.72-5.73-1.82-3.04-.13-22.56,0-22.56.03-.54.98-1.11,2.02-1.69,3.14-.1.2-.2.37-.3.57-.88,1.65-1.82,3.44-2.83,5.46-1.79,3.61-3.1,6.31-3.88,8.09-1.11,2.63-1.15,4.72-.07,6.24,1.08,1.52,3.24,2.36,6.51,2.56.98.03,2.73.03,5.26.03s4.35,0,5.43-.03c3.37-.13,6.31-.98,8.84-2.53,2.53-1.55,4.35-3.51,5.53-5.94l3.61-7.45h-11.94c-2.02,0-3.98.03-5.87.07l-3,6.21c1.72.03,3.37.07,4.99.07h.98c1.55,0,2.93-.61,4.15-1.85h.13l-.84,1.75c-.37.78-.98,1.42-1.85,1.99-.84.54-1.72.84-2.63.84h-9.31c-.84,0-1.35-.2-1.52-.61s-.07-.98.34-1.79l5.06-10.42h12.28c.81,0,1.28.13,1.45.4s.1.67-.17,1.28l-.1.17h8.63l.51-1.05c.51-1.05.84-1.99.98-2.8.03-.64.03-1.18-.03-1.62h0ZM94.47,76.59h-5.36c-2.19,0-3.98-1.69-4.18-3.84l-.57-6.95-.51-6.31c0-.07-.07-.13-.13-.13-.1,0-17.94,17.23-17.94,17.23h-33.73c-2.6-.27-4.35-1.21-5.3-2.56-.88-1.21-.51-4.65-.51-4.65l37.5-.07,20.51-18.79h7.29l2.66,23.81.27,2.26h0ZM66.27,55.28c-.03.71-.2,1.42-.54,2.06-.94,1.89-3.58,7.12-4.59,9.11h-8.5l3.17-6.34c.64-1.28-.3-2.8-1.72-2.8h-11.77c-1.62,0-1.85.24-2.56,1.69l-3.31,7.45H13.79l-4.82,10.08H.57c1.35-2.9,3.44-7.39,6.24-13.19,2.8-5.77,4.89-9.98,6.37-12.88h8.43l-5.94,12.11h.13c.91-1.21,1.79-2.06,2.6-2.53.84-.47,1.75-.67,2.8-.67h9.81l2.39-4.96c1.21-2.5,3.74-3.95,6.51-3.95h20.67c2.8,0,3.84.94,4.76,2.09.64.78.91,1.69.91,2.73h0ZM97.78,44.25c.1.27.17.54.27.81h-10.49l-3.41-9.48h-4.92l-4.62,9.48h-8.43c1.35-2.9,3.44-7.25,6.24-13.05,2.8-5.77,4.92-10.12,6.41-13.02h8.43l-6.07,12.55h.13c.91-1.21,1.72-2.06,2.46-2.5s1.59-.67,2.53-.67h1.48l11.8-9.38h9.68c-7.25,5.77-12.61,9.92-16.05,12.51,1.25,2.97,2.73,7.22,4.55,12.75h0ZM135.31,18.99l-4.38,9.04h-9.81c-1.05,0-1.99.24-2.8.67-.84.47-1.69,1.32-2.63,2.5h-.13l5.94-12.24h-8.43c-1.45,2.9-3.58,7.25-6.41,13.02-2.8,5.77-4.89,10.12-6.24,13.02h8.43l4.82-9.95h13.86l-4.82,9.95h8.36c1.28-2.53,3.1-6.17,5.4-10.89.03-.07.07-.13.1-.24.3-.61.61-1.25.94-1.92,2.8-5.77,4.86-10.12,6.21-13.02l-8.4.07h0ZM170.63,34l-.07-.71-1.59-14.3h-7.29l-15.85,14.64-.44.4-9.58,8.87-2.33,2.16h9.75l3.04-2.93v-.03l6.98-6.85,1.32-1.28.54-.54,5.4-5.3c.1-.1.24-.17.34-.24.13-.07.27-.07.4-.07l.44,5.53.07.61.03.3.57,6.95c.17,2.16,1.99,3.84,4.15,3.84h5.36l-1.25-11.06h0Z"></path><path class="cls-1" d="M180.78,90.93c-7.62,0-9.71-.07-12.58-.13-3.37-.1-7.96-.2-24.49-.3,0,0-9.78-.03-19.53-.07-4.89-.03-9.78-.03-13.42-.07-1.82,0-3.37-.03-4.42-.03-1.35,0-2.02-.13-2.02-.37,0-.34.3-.37.64-.37.2,0,.51,0,.88-.03.78,0,1.89-.03,3.24-.07,2.73-.03,6.51-.1,10.66-.17,9.85-.13,18.85-.27,24.01-.3,12.68-.1,19.43-.24,25.36-.34,6.1-.13,11.4-.24,21.38-.24,3,0,6.31,0,10.05.03h1.72c.34,0,.61,0,.88-.03.44-.44.3-1.65-.37-3.31-1.05-2.39-2.7-4.55-4.65-6.07-.94-.71-1.79-1.11-2.63-1.28-.13-.03-.27-.03-.44-.03h-.3c-7.25-.27-13.56-.67-19.26-1.15-.2,0-.34-.17-.34-.37s.17-.34.34-.34h20.27c3.27,0,3.54.07,3.64.1,3.31.71,5.87,3.54,7.45,5.8,0,0,0,.03.03.03,1.15,1.69,3.54,5.87,1.48,8.16-.2.24-.64.61-1.21.74-.51.07-1.65.1-3.61.1h-2.73l-6.17.03c-5.87.07-10.42.07-13.86.07h0ZM255.79,90.93c-.2,0-.34-.17-.34-.34v-35.48c0-7.69-2.7-13.59-5.23-16.56-1.72-2.02-3.04-2.29-3.98-2.29-.24,0-.47.03-.67.03s-.37.03-.57.03c-2.6,0-4.25,1.59-5.03,2.53-1.15,1.45-2.26,2.26-3.64,2.66h-.07c-8.26.98-13.05,3-16.22,4.35-.74.3-1.38.57-1.96.81-.13.03-.27.07-.4.07-.4,0-.81-.27-1.01-.64-.17-.4-.13-.84.17-1.18,11.03-13.05,15.51-13.63,22.33-14.5l.78-.1c.74-.1,1.45-.13,2.16-.13,4.92,0,7.45,2.5,9.51,4.45,0,0,0,.03.03.03,5.9,5.77,7.15,14.13,7.15,20.14,0,3.84-.3,12.85-.74,20.74-.91,15.38-1.72,15.38-2.26,15.38h0ZM223.65,88.26h-.24c-.13-.03-.27-.13-.3-.27s0-.27.1-.37c.2-.17,1.38-.57,5.56-1.89,3.24-1.05,6.91-2.19,7.89-2.66.71-.47,3-8.57,2.63-10.08-.17-.67-.64-.71-1.52-.74h-.2c-.84,0-23.34,2.53-24.32,2.7-.54.13-1.05.34-1.48.64-.27.2-.54.44-.81.71-.17.17-.34.3-.51.47-.07.07-.13.07-.24.07s-.17-.03-.24-.07c-.13-.1-.17-.3-.07-.44l.07-.1c.3-.54.61-1.08,1.08-1.55.98-.94,2.36-1.21,3.61-1.45.13-.03.3-.07.44-.07l.51-.1c6-1.21,12.21-2.46,18.38-3.07,1.92-.2,3.54-.27,5.09-.27h1.18c1.38,0,2.8.13,3.64,1.08.81.91.88,2.12.94,3.1v.03c.1,2.02-1.21,9.44-2.43,10.89-1.05,1.15-17.3,3.44-18.79,3.44h0ZM182.09,69.92c-.2,0-.34-.17-.34-.34,0-.2.13-.34.34-.37,5.67-.44,12.75-1.18,15.89-1.82,2.6-.54,4.01-3.17,4.79-4.59,1.28-2.39,3.04-6.81.17-9.38-.34-.3-.74-.57-1.18-.78h0c-.34-.13-1.32-.3-4.25-.3-3.95,0-10.39.27-19.09.84-1.01.07-2.43,1.42-3.81,2.77-.07.07-.17.1-.24.1s-.17-.03-.24-.07c-.13-.13-.17-.3-.07-.47,1.18-1.75,2.43-3.44,3.88-3.58l1.82-.17c4.32-.4,9.21-.88,13.49-1.21.44-.03.88-.07,1.32-.1l.34-.03c1.62-.13,3.27-.27,4.92-.27,2.63,0,4.65.34,6.41,1.01,3.61,1.48,4.18,4.86,3.58,7.32-.94,3.81-2.5,6.64-4.72,8.7-1.85,1.69-4.38,2.02-6.41,2.16-6.07.4-11.5.57-16.59.57h0ZM232.21,58.58c-.88,0-1.75-.07-2.56-.24-.91-.17-1.85-.44-2.83-.78l.24-.67c.57.2,1.25.3,2.02.3.64,0,1.38-.07,2.09-.24,1.32-.27,2.66-.81,4.08-1.69,1.55-.94,2.53-1.92,3.14-3.1.4-.81.71-1.72.88-2.63.1-.47.13-.98.17-1.45v-.2c0-.2.03-.47-.03-.64-.44,0-1.59.13-3.24.34.74,1.42.81,3.17.13,4.72-1.25,2.83-4.42,3.84-6.71,3.84h-.4c-1.75-.1-3.34-.88-4.86-1.62-.47-.24-.94-.47-1.38-.67-.17-.07-.24-.27-.2-.44.07-.13.17-.24.34-.24h.07c.57.13,1.11.3,1.65.47.27.07.54.17.84.24,1.18.34,2.16.57,3.17.57.3,0,.61-.03.91-.07,1.25-.2,2.93-.74,3.95-2.16.84-1.11,1.01-2.97-.1-3.98l-.3-.3c-7.52,1.08-14.87,2.36-15.45,2.73-.57.44-1.01,1.08-1.45,1.69-.1.17-.24.34-.37.51l-1.89,2.5-.13.17c-.54.67-1.35,1.69-1.85,2.29-.07.07-.17.13-.27.13-.07,0-.13-.03-.2-.07-.17-.1-.2-.3-.1-.47.84-1.45,2.09-3.54,3.2-5.36l.03-.07c.64-1.08,1.28-2.19,2.43-2.9.74-.47,6.85-1.82,11.8-2.83,4.96-1.01,10.93-2.16,11.47-2.16h.1c1.15.27,2.06,1.08,2.73,1.79.78.81,1.55,1.62,2.02,2.56.61,1.25.71,2.7.3,4.08v.03c-.17.54-.47,1.05-.94,1.55-.34.34-.71.64-1.15.98-1.79,1.25-3.98,2.23-6.58,2.87-1.72.37-3.27.57-4.76.61h0ZM253.8,34.57c-.13,0-.24-.07-.3-.2-.07-.17-.03-.34.1-.44.27-.2.44-.54.54-.84.71-1.92.81-5.87.17-7.86-.07-.13-.17-.27-.34-.4l-.03-.03c-.84-.57-1.85-1.01-2.87-1.45l-.2-.1c-3.17-1.38-6.44-2.63-8.94-3.54-.44-.17-.84-.3-1.28-.47-.17-.07-.3-.1-.47-.17.24.64.47,1.32.67,1.96.54,1.89.61,4.01.24,6.31-.03.17-.17.3-.34.3h0c-.17,0-.34-.13-.34-.3-.27-2.63-.67-4.76-1.82-6.64-.3-.54-.94-1.55-1.21-2.06l-.07-.13c-.13-.24-.27-.47-.34-.78-.17-.57.07-1.28.54-1.65.3-.24.64-.37,1.01-.37h.13c.34.03.51.1.71.17.07.03.1.03.17.07.27.1.54.17.81.27l.24.07c3.2.94,6.34,2.09,9.27,3.34,1.55.67,3.04,1.38,4.52,2.26.44.27,1.01.64,1.52,1.08v.03c.88.78,1.08,2.33,1.08,3.51,0,2.63-.94,6.41-2.36,7.62-.2.17-.4.34-.64.4-.1.07-.13.07-.17.07h0ZM226.68,31.7c-13.15-1.52-29.92-2.43-49.78-2.7-.2,0-.34-.17-.34-.34,0-.2.17-.34.34-.37.3,0,31.2-1.01,49.44-1.35-3.81-8.57-7.76-15.75-9.85-18.82l-.03-.07c-1.08-1.59-1.99-2.93-3.78-3.1-14.81-1.62-32.14-2.33-56.19-2.33-5.87,0-12.24.03-19.49.13h0c-.2,0-.34-.13-.34-.34s.13-.37.34-.37c17.2-1.38,33.93-2.06,51.13-2.06,9.65,0,18.08.2,24.32.4,4.25.13,6.37,1.89,7.62,3.24t.07.07c4.18,5.77,9.11,14,14.67,24.42.07.1.07.2,0,.3-.03.1-.13.17-.24.2-1.82.44-3.88,1.38-6.07,2.39-.51.24-1.05.47-1.59.71-.03.03-.1.03-.13.03q-.07-.07-.1-.07h0Z"></path><g><path class="cls-1" d="M2.46,85.3h.91c.78,1.55,1.65,3.27,2.43,4.86h-.88l-.51-1.01H1.42l-.51,1.01h-.91c.81-1.59,1.69-3.31,2.46-4.86h0ZM2.97,86.11h-.1l-1.21,2.5h0c.13-.17.3-.24.57-.24h1.82l-1.08-2.26h0Z"></path><path class="cls-1" d="M9.75,87.72c0-.81,0-1.62.03-2.43h.78v4.42h.03c.1-.24.3-.34.57-.34h1.52c.57,0,.84-.34.84-.94v-3.14h.78c.03.78.07,1.55.03,3.27,0,.91-.51,1.55-1.75,1.55h-2.83v-2.39h0Z"></path><path class="cls-1" d="M20.24,87.72v-1.69c-.61,0-1.21,0-1.82-.03v-.71h4.45v.71c-.64.03-1.25.03-1.85.03h-.2c.17.1.24.3.24.54v1.15c0,.81,0,1.62-.03,2.43h-.78v-2.43h0Z"></path><path class="cls-1" d="M26.91,88.57c-.03-.84-.03-1.65,0-3.27,1.25-.03,2.93-.03,3.24-.03,1.01.07,1.55.67,1.55,1.59.03.78.03.94,0,1.72-.03.88-.54,1.52-1.55,1.59h-1.69c-.98-.07-1.48-.71-1.55-1.59ZM30.08,89.41c.61,0,.88-.37.88-.98v-1.42c0-.61-.27-.98-.88-.98h-2.36v2.39c0,.61.27.98.88.98h1.48Z"></path><path class="cls-1" d="M41.05,88.67v-.1h.78v.1c0,.51.27.81.84.81h1.62c.51,0,.67-.34.67-.67,0-.37-.13-.67-.71-.67h-1.75c-1.11,0-1.35-.74-1.35-1.42,0-.57,0-.94.03-1.35,1.21-.03,2.77-.03,3.1-.03.98.03,1.28.67,1.32,1.32v.24h-.78v-.13c0-.37-.13-.67-.67-.67h-2.19v.61c0,.47.17.71.64.71h1.79c1.15,0,1.42.81,1.38,1.42-.03.67-.37,1.38-1.35,1.45h-1.85c-1.01-.13-1.52-.64-1.52-1.59h0Z"></path><path class="cls-1" d="M50.08,87.72c0-.81,0-1.62.03-2.43h3.91v.71c-.71.03-1.35.03-2.19.03h-.94v1.62h.03c.1-.2.3-.3.57-.3h2.39v.67h-3v1.35h.98c.84,0,1.52,0,2.19.03v.74h-3.91c-.07-.84-.07-1.62-.07-2.43h0Z"></path><path class="cls-1" d="M58.25,87.72c0-.81,0-1.62.03-2.43h4.49c.03.4.03.67.03,1.42,0,.61-.34.98-.64,1.15.47.2.67.57.67,1.05v1.21h-.78v-1.08c0-.37-.2-.67-.64-.67h-2.33v1.75h-.78c-.03-.78-.03-1.59-.07-2.39h0ZM59.09,87.96c.1-.2.3-.3.57-.3h1.52c.64,0,.81-.37.81-.81v-.81h-2.93l.03,1.92h0Z"></path><path class="cls-1" d="M66.64,85.3h.91l1.89,4.15.03-.03c0-.17.03-.3.1-.47l1.65-3.68h.91c-.71,1.59-1.55,3.34-2.29,4.86h-.88c-.78-1.48-1.62-3.27-2.33-4.82h0Z"></path><path class="cls-1" d="M76.02,87.72v-2.43h.78v4.86h-.78v-2.43Z"></path><path class="cls-1" d="M81.18,88.57c-.03-.84-.03-1.65.03-3.27,1.28-.03,2.87-.03,3.17-.03.98.03,1.35.67,1.38,1.55v.2h-.78v-.1c0-.54-.2-.88-.74-.88h-2.23v2.43c0,.61.27.98.91.98h1.25c.57,0,.84-.34.84-.88v-.3h.81v.44c0,.88-.51,1.45-1.55,1.52-.34.03-1.11.03-1.45,0-1.08-.1-1.62-.74-1.65-1.65h0Z"></path><path class="cls-1" d="M90.09,87.72c0-.81,0-1.62.03-2.43h3.91v.71c-.71.03-1.35.03-2.19.03h-.94v1.62h.03c.1-.2.3-.3.57-.3h2.39v.67h-3v1.35h.98c.84,0,1.52,0,2.19.03v.74h-3.91c-.07-.84-.07-1.62-.07-2.43h0Z"></path></g></g></g></g></svg>