<svg xmlns="http://www.w3.org/2000/svg" id="Layer_2" viewBox="0 0 149.53 161.89"><defs><style>      .cls-1 {        fill: #fff;      }    </style></defs><g id="Layer_1-2" data-name="Layer_1"><g><g><path class="cls-1" d="M42.48,161.62c-.42-.11-.57-.34-.49-.71.07-.34.33-.46.78-.36.58.17,1.12.25,1.6.25,1.13,0,1.7-.42,1.7-1.23,0-.43-.14-.75-.43-.96-.3-.2-.78-.42-1.46-.64-1.48-.49-2.22-1.13-2.22-2.4,0-1.46,1.01-2.27,2.75-2.27.52,0,1.04.07,1.55.21.37.08.53.33.48.66-.08.34-.32.46-.71.38-.4-.11-.82-.17-1.26-.17-1.03,0-1.56.38-1.56,1.14s.43,1.04,1.57,1.42c.66.23,1.02.36,1.51.64.24.15.43.31.56.47.27.34.47.85.47,1.48,0,1.56-1.19,2.34-2.91,2.34-.7,0-1.34-.1-1.95-.27Z"></path><path class="cls-1" d="M56.99,153.44c2.09,0,3.34.94,3.34,2.74s-1.25,2.74-3.34,2.74h-1.01v2.24c0,.42-.2.63-.62.63s-.62-.21-.62-.63v-7.1c0-.42.2-.63.62-.63h1.63ZM56.96,157.85c1.34,0,2.08-.47,2.08-1.67s-.74-1.67-2.08-1.67h-.99v3.35h.99Z"></path><path class="cls-1" d="M69.15,161.17c0,.42-.2.63-.62.63s-.62-.21-.62-.63v-7.15c0-.42.2-.63.62-.63s.62.21.62.63v7.15Z"></path><path class="cls-1" d="M77.73,160.75c-.66-.75-1-1.78-1-3.07s.33-2.39.99-3.18c.65-.8,1.59-1.2,2.84-1.2.46,0,.9.06,1.32.19.49.13.69.37.61.74-.07.32-.3.45-.68.39-.12-.02-.71-.21-1.25-.21-1.71,0-2.54,1.27-2.54,3.26s.84,3.12,2.59,3.12c.58,0,1.21-.21,1.33-.24.36-.07.58.06.66.38.07.36-.13.59-.59.72-.44.15-.93.24-1.45.24-1.22,0-2.17-.38-2.83-1.14Z"></path><path class="cls-1" d="M94.45,160.68c.42,0,.62.18.62.53s-.2.53-.62.53h-3.75c-.42,0-.62-.21-.62-.63v-7.05c0-.42.2-.63.62-.63h3.75c.42,0,.62.18.62.53s-.2.53-.62.53h-3.13v2.46h2.59c.42,0,.63.18.63.53s-.21.53-.63.53h-2.59v2.65h3.13Z"></path><path class="cls-1" d="M102.7,161.62c-.42-.11-.57-.34-.49-.71.07-.34.33-.46.78-.36.58.17,1.12.25,1.6.25,1.13,0,1.7-.42,1.7-1.23,0-.43-.14-.75-.43-.96-.3-.2-.78-.42-1.46-.64-1.48-.49-2.22-1.13-2.22-2.4,0-1.46,1.01-2.27,2.75-2.27.52,0,1.04.07,1.55.21.37.08.53.33.48.66-.08.34-.32.46-.71.38-.4-.11-.82-.17-1.26-.17-1.03,0-1.56.38-1.56,1.14s.43,1.04,1.57,1.42c.66.23,1.02.36,1.51.64.24.15.43.31.56.47.27.34.47.85.47,1.48,0,1.56-1.19,2.34-2.91,2.34-.7,0-1.34-.1-1.95-.27Z"></path></g><g><path class="cls-1" d="M75.88,52.84c-.66.58-1.35,1.07-2.05,1.56-8.34,5.46-17.94,8.67-27.76,10.06-1.7.23-3.43.39-5.14.49-12.79.69-26.24-5.96-31.79-17.83-5-10.83-3.63-24.61,4.52-33.59,6.41-7.24,17.19-10.27,26.23-6.33,7.18,3.37,2.84,13.77-4.58,11.09-4.42-1.83-9.43-.08-12.48,3.49-3.5,4.03-4.56,9.45-3.71,14.87,1.23,9.24,10.26,14.95,19.14,15.1.68.02,1.34,0,2.01-.07,5.54-.43,11.01-1.7,16.2-3.73,3.6-1.42,7.1-3.14,10.23-5.35.38-.29.86-.54,1.2-.76,7.28-4.19,14.2,5.41,7.99,10.99ZM52.57,35.94c2.44-9.18,4.95-18.36,9.6-26.84,1.55-2.67,3.36-5.29,6.07-7.18,2.88-2.07,6.97-2.6,10.24-.95,4.58,2.19,7.22,7.32,9.04,11.58,3.6,8.84,5.54,18.08,7.32,27.34.67,3.62,1.29,7.25,1.77,10.88.81,8.7-11.54,10.43-13.14,1.81-.8-5.71-1.65-11.48-2.75-17.18-.49-.04-.95-.07-1.37-.1-2.91-.21-9.71-.71-14.26-1.04-.46,1.55-.91,3.1-1.34,4.65-2.31,7.25-12.79,4.47-11.19-2.98ZM75.06,12.12c.11-.05.09-.06,0,0h0ZM68.91,23.13c-.15.37.13.77.52.78,2.69.02,5.54.03,7.77.05.44,0,.76-.42.64-.84s-.23-.8-.35-1.2c-.82-2.67-1.84-5.63-3.15-7.97-.18-.32-.63-.35-.85-.05-1.19,1.66-2.11,3.61-3.01,5.51-.55,1.22-1.07,2.46-1.57,3.72ZM131.3,19.48c-3.06-2.02-7.17-1.18-9.19,1.88-1.51,2.28-2.97,4.62-4.45,6.95-1.25,1.96-2.54,3.97-3.85,6-2.23-5.73-5.9-15.19-7.5-19.31-2.97-6.87-12.98-3.3-10.91,3.9,1.62,4.94,5.81,17.78,7.37,22.57.63,1.86,1.41,4.45,2.12,6.5-.23.35-.47.7-.7,1.05-2.37,3.54-4.74,7.04-7.2,10.48-1.17,1.56-2.7,3.47-4.53,3.93-.72.16-1.66-.24-2.34-.77-.23-.17-.45-.36-.65-.56l.06.07c-2.01-2.49-5.66-2.87-8.15-.86-2.6,2.09-2.87,5.96-.63,8.42.66.76,1.4,1.46,2.18,2.08,4.56,3.73,10.75,4.56,16.03,1.79,3.5-1.85,5.82-4.33,8.09-7.32,7.45-9.95,14.58-20.49,21.59-30.77,1.56-2.3,3.12-4.58,4.62-6.93,1.94-3.05,1.09-7.1-1.94-9.1Z"></path><g><path class="cls-1" d="M81.41,80.88c-.59.91-1.16,1.84-1.73,2.76-1.63,2.64-3.97,6.43-6.28,10.18-5.09-8.3-11.73-19.15-11.73-19.15-2.94-4.96-10.6-3.8-11.9,1.88l-5.9,25.45-20.79-31.36c-4.64-6.42-14.06-.24-10.05,6.56l28.37,44.07c.85,1.32,2.2,2.34,3.85,2.73,3.4.82,6.82-1.28,7.64-4.68,0-.03,3.15-13.11,5.82-24.26,4.41,7.38,8.97,14.99,8.97,14.99,2.46,4.24,8.83,4.31,11.38.09,3.99-6.33,10.13-15.68,14-21.96,4.43-7.89-6.48-14.71-11.64-7.3Z"></path><path class="cls-1" d="M118.3,89.76s0,0,0,0c-1.23.08-2.58.02-4.03-.18-4.32-.57-6.35-2.86-7.3-4.67-1.64-3.16-1.18-7.05-.41-9.57-.71.51-1.32,1.19-1.74,2.03l-15.42,30.27-.96,1.89c-.68,1.4-1.56,2.68-2.67,3.8-4.95,4.89-12.69,6.77-19.57,7.18-7.27.35-6.82,10.72.45,10.48.7-.02,1.45-.05,2.14-.11,8.94-.79,17.96-3.37,24.67-9.85,1.59-1.57,3.02-3.4,4.14-5.36.04-.07.68-1.26,1.68-3.16,3.72.77,8.81,1.84,12.26,2.55.1,2.21.18,4.43.25,6.64.58,7.91,11.87,7.58,11.99-.34-.24-7.29-.83-21.02-3.46-31.86-.61.13-1.28.22-2.01.26ZM110.25,103.39c-1.52-.18-3.42-.41-5.27-.63-.25-.03-.4-.3-.28-.53,1.39-2.62,2.83-5.35,4.18-7.91.13-.24.48-.18.53.08.41,2.15.72,4.34,1,6.53.09.68.16,1.37.24,2.06.03.23-.17.43-.41.4Z"></path></g></g><g><path class="cls-1" d="M125.55,82.42s5.6-8.64.2-13.47c0,0,.54,2.67-.58,5.32,0,0,.05-3.74-2.86-7.14-2.94-3.44-2.47-6.81-.55-8.88,0,0-4.73,1.45-5.18,6.23-.3,3.1,1.69,6.8,1.69,6.8,0,0-1.77-1.29-3.52-.05,0,0,2.72.98,2.73,3.61.01,2.63-3.78,3.46-4.58.62-.8-2.85,1.23-6.15-2.19-8.17,0,0,1.45,2.44-.35,5.88-1.05,2.02-3.58,11.66,5.33,12.84,8.91,1.18,9.88-3.57,9.88-3.57Z"></path><g><path class="cls-1" d="M2.88,141.62l-.4,5.48c-.11.93-.16,2.2-1.27,2.2-.82,0-1.21-.85-1.21-1.67,0-3.04.25-6.13.62-9.15.12-.9.51-2.51,1.52-2.51.43,0,.71.45.93.82,1.86,3.17,3.03,6.75,6.47,9.07-.05-3.58-.29-7.68.84-10.82.4-1.04.88-1.77,1.58-1.77,1.01,0,1.61.7,1.39,2-.11.65-1.16,4.63-1.16,9.38,0,.91.19,1.77.19,2.69,0,.84-.56,1.63-1.32,1.63-2.56,0-6.58-4.8-7.79-6.92l-.28-.48-.11.05Z"></path><path class="cls-1" d="M15.51,144.14c-1.39,0-1.87-1.59-1.87-2.9,0-1.1.46-3.51,1.72-3.51.39,0,.81.42.81.91,0,.37-.14.9-.28,1.46-.51,2.6.31,1.98,1.19.37.28-.57.57-1.22.84-1.72.34-.62.7-.85,1.04-.85.88,0,.84,1.12.84,1.81,0,2.11,1.05,3.27,1.05,3.67,0,.37-.37.71-.7.71-1.02,0-1.58-1.77-1.89-2.55-.71.93-1.46,2.6-2.74,2.6Z"></path><path class="cls-1" d="M21.27,140.05c0-.93,1.25-.53,1.39-1.21.22-1.02.54-3.73,1.86-3.73.46,0,.88.29.88.8,0,.96-.34,2.08-.51,3.07h.68c.51,0,1.53.03,1.53.77,0,.88-1.67.71-2.32.76-.19,2.83.37,5.09,2.74,2.23.34-.42.62-.76.85-.76.36,0,.63.28.63.62,0,.45-.31,1.01-.7,1.56-3.19,4.55-6.21.85-5.88-3.28-.57-.06-1.16-.06-1.16-.84Z"></path><path class="cls-1" d="M33.32,138c.51,0,1.29.25,1.29.88,0,.51-.33.76-.82.76-1.32,0-1.95,1.49-1.95,2.65,0,.51.12.98.12,1.49,0,.46-.33.87-.82.87-1.12,0-1.21-2.91-1.21-3.72,0-.87,0-3.61,1.28-3.61.57,0,.81.59.84,1.07.42-.19.81-.39,1.27-.39Z"></path><path class="cls-1" d="M36.58,138.74c.56,0,.9.23.94.84.05.62-.23,1.63-.23,2.06,0,.88.28,1.77.28,2.49,0,.42-.25.76-.65.76-1.27,0-1.58-2.09-1.58-3.17,0-.82.26-2.97,1.24-2.97ZM37.13,138.13c-.63,0-1.33-.46-1.33-1.12,0-.59.51-1.24,1.15-1.24.74,0,1.21.63,1.21,1.29,0,.6-.36,1.07-1.02,1.07Z"></path><path class="cls-1" d="M38.28,140.05c0-.93,1.25-.53,1.39-1.21.22-1.02.54-3.73,1.86-3.73.46,0,.88.29.88.8,0,.96-.34,2.08-.51,3.07h.68c.51,0,1.53.03,1.53.77,0,.88-1.67.71-2.32.76-.19,2.83.37,5.09,2.74,2.23.34-.42.62-.76.85-.76.36,0,.63.28.63.62,0,.45-.31,1.01-.7,1.56-3.19,4.55-6.21.85-5.88-3.28-.57-.06-1.16-.06-1.16-.84Z"></path><path class="cls-1" d="M48.18,138.74c.56,0,.9.23.94.84.05.62-.23,1.63-.23,2.06,0,.88.28,1.77.28,2.49,0,.42-.25.76-.65.76-1.27,0-1.58-2.09-1.58-3.17,0-.82.26-2.97,1.24-2.97ZM48.74,138.13c-.63,0-1.33-.46-1.33-1.12,0-.59.51-1.24,1.15-1.24.74,0,1.21.63,1.21,1.29,0,.6-.36,1.07-1.02,1.07Z"></path><path class="cls-1" d="M54.67,137.69c0,.28-.16.42-.47.51-1.08.28-1.97,2.04-1.97,3,0,.65.48,1.49,1.36,1.49.7,0,1.66-.93,1.66-1.52,0-.85-1.8-.94-1.8-1.72,0-.39.4-.71.87-.71,1.35,0,2.51.98,2.51,2.15,0,1.49-1.7,3.28-3.48,3.28-4.68,0-3.72-7.18.11-7.18.45,0,1.21.22,1.21.7Z"></path><path class="cls-1" d="M59.69,144.14c-1.39,0-1.87-1.59-1.87-2.9,0-1.1.46-3.51,1.72-3.51.39,0,.81.42.81.91,0,.37-.14.9-.28,1.46-.51,2.6.31,1.98,1.19.37.28-.57.57-1.22.84-1.72.34-.62.7-.85,1.04-.85.88,0,.84,1.12.84,1.81,0,2.11,1.05,3.27,1.05,3.67,0,.37-.37.71-.7.71-1.02,0-1.58-1.77-1.89-2.55-.71.93-1.46,2.6-2.74,2.6Z"></path><path class="cls-1" d="M65.86,140.04c0-1.39,1.27-2.51,2.62-2.51.84,0,1.75.56,1.75,1.46,0,.45-.31.98-.82.98-.42,0-.53-.48-.88-.48s-.76.37-.76.74c0,.6,2.06,1.44,2.06,3.07,0,1.44-1.39,2.04-2.62,2.04-.59,0-1.61-.08-1.61-.84,0-1.02,1.75-.87,2.4-1.56-.77-.9-2.14-1.55-2.14-2.9Z"></path><path class="cls-1" d="M85.76,133.04c.28-.43.88-.71,1.41-.7,2.23.08,2.17,2.42.7,4.72-2.76,4.27-4.69,10.59-4.89,11.12-.23.6-.88.87-1.47.87-2.94,0-3.64-7.52-3.64-9.97,0-1.13-.03-4.13,1.39-4.13.53,0,1.02.36,1.07,1.02.05,3-.23,6.3.7,8.87.33.84.84.79,1.07.05,1.04-3.22,2.57-10.17,3.67-11.84Z"></path><path class="cls-1" d="M89.02,138.74c.56,0,.9.23.94.84.05.62-.23,1.63-.23,2.06,0,.88.28,1.77.28,2.49,0,.42-.25.76-.65.76-1.27,0-1.58-2.09-1.58-3.17,0-.82.26-2.97,1.24-2.97ZM89.57,138.13c-.63,0-1.33-.46-1.33-1.12,0-.59.51-1.24,1.15-1.24.74,0,1.21.63,1.21,1.29,0,.6-.36,1.07-1.02,1.07Z"></path><path class="cls-1" d="M93,139.81c-.34.93-.43,2.62.87,2.62.98,0,1.77-.71,2.15-.71.31,0,.59.28.59.56,0,.67-.42,1.11-.98,1.39-2.21,1.11-4.72.2-4.72-2.42,0-1.72,1.16-3.86,3.02-3.86,1.07,0,2.35.84,2.35,1.97,0,1.05-1.01,2.03-2.03,2.03-.56,0-.94-.36-.94-.93,0-.51.28-.68.62-.79.54-.17.5-.51-.11-.51-.45,0-.68.28-.82.65Z"></path><path class="cls-1" d="M97.29,140.05c0-.93,1.25-.53,1.39-1.21.22-1.02.54-3.73,1.86-3.73.46,0,.88.29.88.8,0,.96-.34,2.08-.51,3.07h.68c.51,0,1.53.03,1.53.77,0,.88-1.67.71-2.32.76-.19,2.83.37,5.09,2.74,2.23.34-.42.62-.76.85-.76.36,0,.63.28.63.62,0,.45-.31,1.01-.7,1.56-3.19,4.55-6.21.85-5.88-3.28-.57-.06-1.16-.06-1.16-.84Z"></path><path class="cls-1" d="M110.3,137.34c1.55,0,2.25,1.32,2.25,2.71,0,.91-.14,2.46-.25,3.38-.12.6-.37.93-1.02.93-.7,0-1.33-.46-1.11-1.86.09-.82.33-2.09.33-2.59,0-1.49-2.37-.32-2.37,2.17,0,.51.14.98.14,1.49s-.4.99-.96.99c-1.25,0-1.45-2.74-1.45-3.62,0-.84.14-3.36,1.35-3.36.48,0,.62.32.93.65.65-.42,1.36-.88,2.18-.88Z"></path><path class="cls-1" d="M118.59,137.22c.45,0,.73.37.73.82,0,.79-.33,1.59-.33,2.46,0,2.06.85,1.46.85,2.24,0,.54-.39.82-.85.82-.87,0-1.19-.6-1.66-1.24-.34.82-1.04,2.03-2.04,2.03-1.39,0-1.87-1.63-1.87-2.77,0-1.87,1.04-4.01,3.16-4.01.42,0,.76.14,1.18.19.22-.26.47-.54.84-.54ZM116.62,139.45c-1.05,0-1.38,1.56-1.38,2.37,0,1.25.45.96.87.05.37-.74.56-1.53.88-2.34-.14-.05-.26-.08-.37-.08Z"></path><path class="cls-1" d="M122.74,142.8c-.05.77.03,1.89-1.13,1.81-1.25-.06-1.01-2.28-.96-3.11.05-.8.4-4.27,1.63-4.2.65.05.74.57.79,1.12.45-.26.97-.45,1.49-.4.56.03,1.02.36,1.35.77.88-.87,1.7-1.7,3.19-1.61,1.73.12,1.83,1.66,1.73,3.05-.06,1.18-.05,2.42-.11,3.59-.05.51-.42.88-1.02.84-1.44-.09-.91-2.66-.87-4.61.03-1.95-1.18-.84-1.78.25-.84,1.49-.64,3.33-1.7,3.25-.99-.06-1.11-1.63-1.16-2.74,0-1.32-.88-.65-1.21.05-.19.45-.19,1.02-.23,1.95Z"></path><path class="cls-1" d="M133.99,139.81c-.34.93-.43,2.62.87,2.62.98,0,1.77-.71,2.15-.71.31,0,.59.28.59.56,0,.67-.42,1.11-.98,1.39-2.21,1.11-4.72.2-4.72-2.42,0-1.72,1.16-3.86,3.02-3.86,1.07,0,2.35.84,2.35,1.97,0,1.05-1.01,2.03-2.03,2.03-.56,0-.94-.36-.94-.93,0-.51.28-.68.62-.79.54-.17.5-.51-.11-.51-.45,0-.68.28-.82.65Z"></path><path class="cls-1" d="M138.68,140.04c0-1.39,1.27-2.51,2.62-2.51.84,0,1.75.56,1.75,1.46,0,.45-.31.98-.82.98-.42,0-.53-.48-.88-.48s-.76.37-.76.74c0,.6,2.06,1.44,2.06,3.07,0,1.44-1.39,2.04-2.62,2.04-.59,0-1.61-.08-1.61-.84,0-1.02,1.75-.87,2.4-1.56-.77-.9-2.14-1.55-2.14-2.9Z"></path><path class="cls-1" d="M145.92,139.81c-.34.93-.43,2.62.87,2.62.98,0,1.77-.71,2.15-.71.31,0,.59.28.59.56,0,.67-.42,1.11-.98,1.39-2.21,1.11-4.72.2-4.72-2.42,0-1.72,1.16-3.86,3.02-3.86,1.07,0,2.35.84,2.35,1.97,0,1.05-1.01,2.03-2.03,2.03-.56,0-.94-.36-.94-.93,0-.51.28-.68.62-.79.54-.17.5-.51-.11-.51-.45,0-.68.28-.82.65Z"></path></g></g></g></g></svg>