<svg xmlns="http://www.w3.org/2000/svg" id="Layer_2" viewBox="0 0 202.34 134.89"><defs><style>      .cls-1 {        fill: #fff;      }    </style></defs><g id="Layer_1-2" data-name="Layer_1"><g><g><g><path class="cls-1" d="M47.87,131.39c.43-.16.93-.69.93-1.42,0-1.11-.71-1.82-2.47-1.82h-3.16v6.74h3.27c1.86,0,2.56-.86,2.56-1.98,0-.82-.51-1.33-1.12-1.52ZM44.58,129.29h1.74c.79,0,1.06.36,1.06.81,0,.49-.28.85-.88.85h-1.92v-1.66ZM46.45,133.75h-1.87v-1.84h2c.65,0,1.01.39,1.01.92,0,.5-.3.92-1.13.92Z"></path><path class="cls-1" d="M58.72,129.29v-1.14h-5.26v6.74h5.26v-1.14h-3.85v-1.76h3.48v-1.11h-3.48v-1.58h3.85Z"></path><path class="cls-1" d="M67.56,128.15h-1.69l-2.67,6.74h1.46l.6-1.57h2.89l.6,1.57h1.47l-2.67-6.74ZM65.69,132.22l1.03-2.68,1.02,2.68h-2.05Z"></path><path class="cls-1" d="M78.03,133.79c-1.1,0-1.95-.82-1.95-2.27s.85-2.27,1.95-2.27c.93,0,1.34.57,1.53.86l1.24-.33c-.31-.81-1.23-1.62-2.77-1.62-1.89,0-3.31,1.19-3.31,3.37s1.42,3.37,3.31,3.37c1.54,0,2.46-.81,2.77-1.62l-1.24-.33c-.18.29-.59.86-1.53.86Z"></path><path class="cls-1" d="M89.7,128.15v2.7h-3v-2.7h-1.42v6.74h1.42v-2.91h3v2.91h1.41v-6.74h-1.41Z"></path><path class="cls-1" d="M107.78,130.32c0-1.34-.93-2.17-2.39-2.17h-3.35v6.74h1.41v-2.4h1.64l1.17,2.4h1.52l-1.3-2.61c.8-.31,1.3-.95,1.3-1.96ZM105.26,131.35h-1.81v-2.06h1.81c.75,0,1.11.4,1.11,1.03s-.36,1.03-1.11,1.03Z"></path><path class="cls-1" d="M117.53,129.29v-1.14h-5.27v6.74h5.27v-1.14h-3.85v-1.76h3.48v-1.11h-3.48v-1.58h3.85Z"></path><path class="cls-1" d="M124.95,130.91c-1.04-.18-1.37-.48-1.37-.9,0-.45.4-.77,1.15-.77.79.01,1.1.36,1.26.61l1.15-.4c-.27-.65-1.04-1.32-2.44-1.32-1.6,0-2.48.75-2.48,1.85,0,.94.57,1.65,2.35,1.98,1,.18,1.39.45,1.39.93,0,.51-.36.88-1.25.88-1.05,0-1.43-.59-1.54-.78l-1.15.4c.24.65.98,1.48,2.69,1.48s2.61-.8,2.61-1.97c0-1.23-.87-1.75-2.37-2Z"></path><path class="cls-1" d="M135.13,128.15c-1.7,0-3.32,1.05-3.32,3.37s1.62,3.37,3.32,3.37,3.32-1.05,3.32-3.37-1.61-3.37-3.32-3.37ZM135.13,133.79c-1.12,0-1.96-.87-1.96-2.27s.84-2.27,1.96-2.27,1.96.87,1.96,2.27-.85,2.27-1.96,2.27Z"></path><path class="cls-1" d="M148.67,130.32c0-1.34-.93-2.17-2.39-2.17h-3.35v6.74h1.41v-2.4h1.64l1.17,2.4h1.52l-1.3-2.61c.8-.31,1.3-.95,1.3-1.96ZM146.15,131.35h-1.81v-2.06h1.81c.75,0,1.1.4,1.1,1.03s-.35,1.03-1.1,1.03Z"></path><path class="cls-1" d="M153.16,128.15v1.14h2.3v5.6h1.4v-5.6h2.31v-1.14h-6.02Z"></path></g><g><rect class="cls-1" x="30.44" y="130.21" width="2.61" height="2.61" transform="translate(-83.7 60.96) rotate(-45)"></rect><rect class="cls-1" x="169.29" y="130.21" width="2.61" height="2.61" transform="translate(-43.03 159.15) rotate(-45)"></rect></g></g><g><path class="cls-1" d="M8.82,102.35c.55,0,1.15.17,1.79.51.65.34,1.19.71,1.63,1.1.44.39.87.8,1.29,1.21.42.41.65.64.69.67h.14v-4.66H0v.11l.11.39c.07.24.14.49.19.74s.12.56.19.91c.08.36.14.74.18,1.14.04.4.07.78.07,1.14v11.35c0,.35-.02.74-.07,1.14-.05.4-.11.78-.18,1.14-.07.36-.14.66-.19.91s-.12.5-.19.75l-.11.39v.11h14.37l-.03-1.18.03-3.49h-.14s-.27.26-.69.67c-.42.41-.85.82-1.29,1.21-.44.39-.98.76-1.63,1.1-.64.34-1.24.51-1.79.51h-3.81v-8.65h1.57c.68,0,1.41.1,2.19.29s1.49.42,2.11.66l.96.39h.11v-3.73h-.11l-.96.36c-.63.26-1.33.49-2.11.69-.78.2-1.51.29-2.19.29h-1.57v-8.18h3.81Z"></path><path class="cls-1" d="M30.94,103.96c-1.85-1.86-4.11-2.79-6.77-2.79h-7.83v.11l.11.39c.07.24.14.49.19.74s.12.56.19.91c.08.36.14.74.18,1.14.04.4.07.78.07,1.14v11.35c0,.35-.02.74-.07,1.14-.05.4-.11.78-.18,1.14-.07.36-.14.66-.19.91s-.12.5-.19.75l-.11.39v.11h7.83c2.69,0,4.95-.93,6.78-2.8,1.84-1.86,2.76-4.33,2.76-7.41s-.92-5.37-2.77-7.24ZM28.91,111.34c0,2.51-.51,4.62-1.52,6.34-1.01,1.71-2.49,2.57-4.44,2.57h-1.6v-17.93h1.6c1.32,0,2.44.43,3.36,1.29.92.86,1.58,1.94,1.97,3.25.4,1.3.6,2.75.62,4.34v.14Z"></path><path class="cls-1" d="M44.51,102.35c.55,0,1.15.17,1.79.51.65.34,1.19.71,1.63,1.1.44.39.87.8,1.29,1.21.42.41.65.64.69.67h.14v-4.66h-14.37v.11l.11.39c.07.24.14.49.19.74.06.25.12.56.19.91.07.36.13.74.18,1.14.05.4.07.78.07,1.14v11.35c0,.35-.02.74-.07,1.14-.05.4-.11.78-.18,1.14-.07.36-.14.66-.19.91-.06.25-.12.5-.19.75l-.11.39v.11h14.37l-.03-1.18.03-3.49h-.14s-.26.26-.69.67c-.42.41-.85.82-1.29,1.21-.44.39-.98.76-1.63,1.1-.64.34-1.24.51-1.79.51h-3.81v-8.65h1.57c.68,0,1.41.1,2.19.29.78.2,1.49.42,2.11.66l.96.39h.11v-3.73h-.11l-.96.36c-.63.26-1.33.49-2.11.69-.78.2-1.51.29-2.19.29h-1.57v-8.18h3.81Z"></path><path class="cls-1" d="M65.84,101.17v.14s.13.39.39,1.12c.26.73.49,1.56.7,2.49.21.92.32,1.8.32,2.62v8.29l-9.76-14.67h-5.46v.11c.49.81,1.41,2.71,1.41,4.72v9.02c0,.64-.07,1.33-.21,2.06-.14.74-.29,1.36-.44,1.87-.16.51-.31,1-.48,1.49-.17.49-.26.76-.28.81v.14h4.08v-.14s-.13-.39-.39-1.12c-.25-.73-.49-1.56-.7-2.49-.21-.93-.32-1.81-.32-2.63v-10.2l11.09,16.58h2.73v-13.86c0-.63.07-1.32.21-2.06.14-.74.28-1.36.44-1.87.16-.51.32-1,.48-1.49.17-.49.26-.76.27-.82v-.14h-4.08Z"></path><path class="cls-1" d="M81.12,109.13c-1.63-.65-2.71-1.12-3.24-1.39-1.55-.82-2.33-1.74-2.33-2.78,0-.69.27-1.29.82-1.8.54-.51,1.26-.77,2.15-.77.29,0,.72.03,1,.1.29.06.59.17.9.31.31.15.59.28.83.41.24.13.53.32.85.57.33.25.6.46.8.61.21.16.48.4.81.73.34.33.58.55.71.68.14.12.38.36.73.71s.56.55.63.63h.13v-4.45c-2.53-1.02-4.9-1.53-6.81-1.53-2.25,0-4.01.57-5.3,1.72-1.28,1.14-1.93,2.52-1.93,4.12,0,1.4.5,2.56,1.51,3.48,1.01.92,2.42,1.7,4.24,2.36,1.73.65,3.02,1.3,3.88,1.94.85.63,1.28,1.47,1.28,2.51,0,.89-.3,1.59-.9,2.09-.6.5-1.32.75-2.18.75-1.18,0-2.74-.55-4.15-1.64-.75-.56-1.92-1.68-3.5-3.35h-.19v4.55c2.71,1.14,5.36,1.72,7.41,1.72s3.75-.51,5.17-1.53c1.41-1.02,2.11-2.47,2.11-4.36,0-2.73-1.82-4.86-5.46-6.38Z"></path><path class="cls-1" d="M97.38,102.35c.55,0,1.15.17,1.79.51s1.19.71,1.63,1.1c.44.39.87.8,1.29,1.21.42.41.65.64.69.67h.14v-2.66c-.46-.07-.92-.16-1.38-.25,0,0-.01,0-.02,0-1.8-.28-3.61-.71-5.42-1.27-.48-.15-.95-.31-1.42-.48h-6.14v.11l.11.39c.08.24.14.49.2.74.06.25.12.56.19.91.07.36.13.74.18,1.14.05.4.07.78.07,1.14v11.35c0,.35-.02.74-.07,1.14-.05.4-.11.78-.18,1.14-.07.36-.14.66-.19.91-.06.25-.12.5-.2.75l-.11.39v.11h14.37l-.03-1.18.03-3.49h-.14s-.26.26-.69.67c-.42.41-.85.82-1.29,1.21-.44.39-.99.76-1.63,1.1s-1.24.51-1.79.51h-3.81v-8.65h1.57c.68,0,1.41.1,2.19.29.78.2,1.48.42,2.11.66l.97.39h.11v-3.73h-.11l-.97.36c-.63.26-1.33.49-2.11.69-.78.2-1.51.29-2.19.29h-1.57v-8.18h3.81Z"></path><path class="cls-1" d="M118.74,101.17c-1.32.5-2.73.94-4.22,1.29.32.08.65.21.99.39.64.34,1.19.71,1.63,1.1.44.39.87.8,1.3,1.21.42.41.65.64.69.67h.14v-4.66h-.52ZM119.26,116.74h-.14s-.27.26-.69.67c-.42.41-.86.82-1.3,1.21-.44.39-.98.76-1.63,1.1-.65.34-1.24.51-1.79.51h-3.8v-8.65h1.57c.68,0,1.41.1,2.19.29s1.48.42,2.11.66l.96.39h.11v-3.73h-.11l-.96.36c-.63.26-1.33.49-2.11.69-.78.2-1.51.29-2.19.29h-1.57v-7.21c-.87.1-1.76.15-2.7.15-.59,0-1.19-.02-1.8-.06.06.32.11.65.15,1,.05.4.07.78.07,1.14v11.42c0,.35-.02.74-.07,1.14-.05.4-.11.78-.18,1.14-.08.36-.14.66-.2.91-.05.25-.12.5-.19.75l-.11.39v.11h14.37l-.03-1.18.03-3.49Z"></path><path class="cls-1" d="M145.09,120.91c-.21-.24-.44-.49-.68-.77-.24-.28-.52-.62-.85-1.02-.33-.4-.62-.77-.85-1.11l-6.49-8.66,5.42-5.35c1.34-1.27,2.38-2.17,3.14-2.72v-.11h-5.2v.14c.07.21.11.46.11.76,0,.36-.08.89-.23,1.6-.16.71-.67,1.48-1.53,2.32l-5.31,5.07s-.06.08-.06.14c0,.04,0,.08.03.11l4.9,6.64c.29.43.54.92.74,1.46.2.54.35,1,.44,1.37.09.37.16.58.19.62h6.58v-.11s-.14-.15-.34-.38ZM132.25,104.16c.07-.52.15-.96.23-1.32.08-.35.17-.7.25-1.02.08-.33.12-.51.12-.55v-.11h-5.72v.11l.11.39c.07.24.14.49.19.74.06.25.12.56.19.91.07.35.13.74.18,1.14.05.4.07.78.07,1.13v11.38c0,.36-.02.74-.07,1.14-.05.4-.11.78-.18,1.13-.07.35-.14.66-.19.91-.05.25-.12.5-.19.74l-.11.39v.11h5.72v-.11s-.04-.22-.12-.55-.17-.67-.25-1.03c-.08-.35-.16-.79-.23-1.32-.07-.52-.11-1-.11-1.43v-11.38c0-.43.04-.91.11-1.43Z"></path><path class="cls-1" d="M156.22,102.35c.55,0,1.15.17,1.79.51.65.34,1.19.71,1.63,1.1.44.39.87.8,1.29,1.21.42.41.65.64.69.67h.14v-4.66h-14.37v.11l.11.39c.07.24.14.49.19.74s.12.56.19.91c.08.36.14.74.18,1.14.04.4.07.78.07,1.14v11.35c0,.35-.02.74-.07,1.14-.05.4-.11.78-.18,1.14-.07.36-.14.66-.19.91s-.12.5-.19.75l-.11.39v.11h14.37l-.03-1.18.03-3.49h-.14s-.26.26-.69.67c-.42.41-.85.82-1.29,1.21-.44.39-.98.76-1.63,1.1-.64.34-1.24.51-1.79.51h-3.81v-8.65h1.57c.68,0,1.41.1,2.19.29s1.49.42,2.11.66l.96.39h.11v-3.73h-.11l-.96.36c-.63.26-1.33.49-2.11.69-.78.2-1.51.29-2.19.29h-1.57v-8.18h3.81Z"></path><path class="cls-1" d="M175.07,111.22v.11l.45.77c.3.49.58,1.05.82,1.68.24.63.36,1.21.36,1.76v3.82c-.98.55-1.95.82-2.89.82-1.59-.02-2.88-.85-3.86-2.49-.98-1.64-1.47-3.78-1.47-6.42s.47-4.77,1.4-6.4c.94-1.63,2.17-2.44,3.69-2.44h.06c1.96.02,4.09,1.74,6.38,5.16h.24v-4.92c-2.43-1-4.68-1.5-6.75-1.5-2.75,0-5.07.97-6.94,2.92-1.88,1.95-2.81,4.34-2.81,7.18s.9,5.37,2.69,7.28c1.8,1.9,4.02,2.85,6.66,2.85s5.13-.66,7.77-1.99v-3.88c0-.42.03-.88.09-1.39s.13-.94.2-1.28c.07-.35.14-.68.22-1,.07-.32.11-.5.11-.53v-.11h-6.4Z"></path><path class="cls-1" d="M200.18,116.79l-5.76-15.62h-5.02v.08c.33.84.5,1.59.5,2.25,0,.39-.06.76-.17,1.1l-3.86,10.9c-.88,2.51-1.7,4.45-2.45,5.82v.08h3.89v-.14c-.35-1.16-.52-2.23-.52-3.2,0-.77.11-1.48.33-2.14l.47-1.38h7.17l.83,2.22c.22.6.34,1.14.36,1.62.02.48.03.81.03,1,0,.41-.02.77-.07,1.08-.05.31-.11.58-.18.83v.11h6.62v-.08c-.74-1.12-1.45-2.63-2.15-4.52ZM188.02,113.28l3.06-8.74,3.23,8.74h-6.29Z"></path></g><g><path class="cls-1" d="M93.39,88.17c12.97,6.16,22.79,2.92,24.89,1.88,7.62-3.78,8.66-10.59,8.65-12.6,0,0-1.05,2.9-3.45,5.7-6.43,7.48-16.19,8.77-30.09,5.02Z"></path><path class="cls-1" d="M101.13,96.18c-13.02-1.75-21.06-13.78-33.33-11.93,10.11,1.22,15.91,11.65,27.85,15.3,22.78,6.96,37.53-10.9,37.74-13.63-.83,1.78-11.24,13.08-32.26,10.26Z"></path><path class="cls-1" d="M83.59,78.02c1.77,1.14,3.69,2.47,5.8,3.97,3.72,2.66,8.37,4.14,12.99,4.38,3.07.16,6.13-.24,8.88-1.19.02,0,.03-.01.05-.02,2.11-.79,4.03-1.89,5.72-3.25.02-.02.05-.04.08-.07.12-.09.24-.2.36-.3.01-.01.03-.02.04-.03.4-.34.78-.7,1.15-1.07,0,0,0-.01.01-.01.39-.41.76-.85,1.09-1.31.11-.15.21-.29.31-.44.17-.26.34-.53.49-.8,0,0,0-.01.01-.02.19-.33.3-.56.3-.56,0,0,0,0,0,0,1.41-2.79,1.82-6.1.91-9.36-.12-.44-.26-.86-.43-1.28-.24-.7-.62-1.43-1.08-2.14-.05-.08-.1-.17-.16-.25-.32-.49-.68-.95-1.06-1.39-.1-.12-.21-.24-.31-.35-.08-.08-.16-.16-.24-.24-.08-.09-.17-.17-.26-.25-.1-.09-.2-.18-.29-.27-.02-.03-.05-.05-.07-.07-.07-.07-.15-.13-.23-.19-.06-.06-.12-.11-.19-.16-.1-.09-.21-.17-.31-.24-1.62-1.2-3.58-1.94-5.63-2.1h-.02c-.15-.01-.28-.02-.43-.03-.93-.04-1.88.05-2.83.27-.16.03-.31.07-.47.12-.13.04-.26.08-.39.12-1.37.44-2.6,1.13-3.65,2.01.1-.18.2-.36.31-.54.43-.71.93-1.37,1.49-1.98.61-.66,1.29-1.26,2.03-1.77.06-.04.12-.09.19-.12,2.25-1.4,5.11-2.24,7.88-2.07.01,0,.03,0,.04,0,.09,0,.18.01.27.02.62.06,1.23.17,1.83.32.02,0,.04.01.06.02.1.03.21.06.31.09,1.31.41,2.42.94,3.35,1.54.06.04.12.08.18.12.01,0,.02.01.03.02.62.42,1.2.9,1.73,1.42,1.08,1.07,1.97,2.33,2.6,3.74.01.02.02.03.02.05.02.05.03.08.04.11,0-.02-.01-.05-.02-.07,0,.01.01.02.02.04-.62-2.7-1.98-5.12-3.86-7.03-.09-.09-.19-.19-.28-.28-1.15-1.19-2.57-2.24-4.29-2.97l-3.77-27.18h.62c.65,0,1.25-.26,1.68-.69s.7-1.02.7-1.68c0-1.31-1.06-2.37-2.37-2.37h-24.19c-.65,0-1.25.27-1.68.7s-.7,1.02-.7,1.68c0,1.31,1.06,2.37,2.37,2.37h.62l-6.68,48.22c-14.89-5.54-21.38,2.38-21.38,2.38,6.16-2.77,12.73-2.7,20.71,2.45ZM96.31,37.29c.27-3.18,2.92-5.62,6.11-5.62,1.59,0,3.06.61,4.15,1.62,1.09,1.01,1.83,2.41,1.96,4l.86,10.32c0,.09-.06.17-.15.17h-13.64c-.09,0-.16-.08-.15-.17l.86-10.32Z"></path><path class="cls-1" d="M91.43,17.73h6.19c.05,0,.09-.04.1-.09l.42-4.02c.18-2.22,2.04-3.94,4.27-3.94,1.12,0,2.14.43,2.9,1.13s1.27,1.69,1.37,2.8l.42,4.02c0,.05.05.09.1.09h6.19c.06,0,.11-.05.1-.11l-.52-4.78c-.24-2.74-1.51-5.15-3.4-6.88-1.47-1.35-3.32-2.28-5.36-2.63v-1.53c0-.5-.2-.94-.53-1.27-.33-.32-.77-.53-1.27-.53-.99,0-1.79.8-1.79,1.79v1.53c-4.67.8-8.33,4.65-8.76,9.52l-.52,4.78c0,.06.04.11.1.11Z"></path><path class="cls-1" d="M138.17,58.58c-.24-.86-.51-1.7-.82-2.53-.09-.26-.2-.52-.3-.78,0-.01-.01-.03-.02-.04-.03-.08-.06-.17-.1-.25-.5-1.24-1.07-2.44-1.71-3.59-.21-.37-.75-.36-.94.02-.5,1.01-1.08,1.98-1.73,2.91-.97,1.37-2.1,2.64-3.38,3.77-.31.28-.64.55-.97.81-.43.34-.53.94-.24,1.4.35.56.65,1.15.91,1.76.39.93.67,1.91.83,2.93.02.1.03.21.05.32,0,.01,0,.03,0,.04.06.51.09,1.02.09,1.54,0,1.28-.19,2.51-.55,3.67-.6-.52-1.77-.69-2.65-.2-.13.07-.26.16-.37.26-.02.01-.04.03-.06.04-.74.63-1.02,1.56-.63,2.26l.06.1s.03.03.04.05l.05.06c.54.63,1.63.73,2.58.19.21-.12.39-.25.55-.41.05-.04.27-.27.32-.34.14-.17.28-.35.42-.55.01-.01.02-.03.03-.04,1.1-1.76,1.77-3.84,1.86-6.05.01-.18.01-.36.01-.55,0-1.52-.27-2.99-.78-4.34,1.55-.94,2.95-2.06,4.19-3.33.63,1.11,1.18,2.29,1.63,3.54.18.49.34,1,.48,1.51.34,1.23.58,2.48.71,3.71.02.14.03.28.04.42,0,.02,0,.03,0,.04.09,1.07.1,2.13.03,3.18h.01c-.03.41-.07.83-.13,1.24-.84,5.95-3.1,8.92-3.44,9.46-.37-.99-1.82-1.78-3.17-1.42-1.28.34-2.14,1.38-2,2.41,0,.07.02.14.04.2.28,1.1,1.61,1.7,2.98,1.36.68-.17,1.16-.55,1.22-.59,3.03-2.36,5.38-6.68,6-12.2h0c.31-3.85-.08-8.05-1.18-11.99Z"></path></g></g></g></svg>