<svg xmlns="http://www.w3.org/2000/svg" id="Layer_2" viewBox="0 0 221.58 150.55"><defs><style>      .cls-1 {        fill: #fff;      }    </style></defs><g id="Layer_1-2" data-name="Layer_1"><g><g><path class="cls-1" d="M52.57,147.67h-1.85v2.71h-1.13v-7.32h3.48c.73,0,1.31.23,1.75.7.44.47.65,1.01.65,1.61,0,.5-.15.96-.45,1.37s-.72.69-1.25.83l1.89,2.81h-1.31l-1.78-2.72ZM50.71,146.66h2.29c.41,0,.74-.13,1-.38.25-.25.38-.55.38-.9s-.12-.66-.37-.91c-.24-.26-.57-.38-.96-.38h-2.32v2.58Z"></path><path class="cls-1" d="M62.04,144.1v2.08h3.62v.98h-3.62v2.19h4.14v1.04h-5.26v-7.32h5.27v1.03h-4.15Z"></path><path class="cls-1" d="M74.24,150.53c-.81,0-1.51-.21-2.1-.64-.59-.42-.98-.95-1.19-1.57l1.07-.32c.17.45.46.81.86,1.1.41.29.88.43,1.43.43.48,0,.88-.12,1.19-.35.31-.23.47-.5.47-.8,0-.24-.09-.45-.27-.62s-.47-.32-.89-.45l-1.84-.59c-1.1-.34-1.64-.94-1.64-1.79,0-.55.24-1.03.72-1.42.48-.39,1.09-.59,1.81-.59s1.39.17,1.93.52c.54.35.92.78,1.15,1.3l-1.06.32c-.17-.34-.44-.62-.79-.83-.35-.21-.76-.31-1.22-.31-.4,0-.73.1-1,.29-.26.19-.39.42-.39.69,0,.21.08.38.22.52.15.14.38.25.71.35l1.8.57c.64.2,1.11.45,1.43.73.32.29.48.7.48,1.21,0,.63-.27,1.15-.8,1.58-.53.43-1.22.64-2.06.64h-.03Z"></path><path class="cls-1" d="M85.8,150.53c-1.09,0-2-.36-2.72-1.09-.73-.73-1.09-1.63-1.09-2.71s.36-1.99,1.09-2.7c.73-.72,1.64-1.08,2.72-1.08s1.99.36,2.72,1.08c.72.72,1.09,1.62,1.09,2.7s-.36,1.98-1.09,2.71c-.72.73-1.63,1.09-2.71,1.09h0ZM85.8,149.5c.79,0,1.43-.27,1.92-.8.5-.54.75-1.2.75-1.97s-.25-1.42-.75-1.94c-.5-.53-1.14-.79-1.92-.79s-1.43.26-1.93.79c-.5.52-.75,1.17-.75,1.93s.25,1.44.75,1.97c.5.53,1.14.8,1.93.8h0Z"></path><path class="cls-1" d="M97.91,147.67h-1.85v2.71h-1.13v-7.32h3.48c.73,0,1.31.23,1.75.7.44.47.65,1.01.65,1.61,0,.5-.15.96-.45,1.37s-.72.69-1.25.83l1.89,2.81h-1.31l-1.78-2.72ZM96.05,146.66h2.29c.41,0,.74-.13,1-.38.25-.25.38-.55.38-.9s-.12-.66-.37-.91c-.24-.26-.57-.38-.96-.38h-2.32v2.58Z"></path><path class="cls-1" d="M111.98,144.1h-2.57v6.29h-1.14v-6.29h-2.58v-1.03h6.29v1.03Z"></path><path class="cls-1" d="M129.05,150.4l-.74-.79c-.67.62-1.43.93-2.28.93-.63,0-1.16-.2-1.61-.59-.44-.39-.66-.89-.66-1.51,0-.41.12-.81.36-1.19.24-.37.59-.69,1.06-.95-.42-.49-.64-.96-.64-1.41,0-.61.2-1.08.61-1.43s.93-.52,1.58-.52c.56,0,1.04.16,1.43.47.39.32.63.7.71,1.16l-.99.29c-.08-.29-.22-.53-.41-.7-.2-.17-.45-.26-.75-.26-.32,0-.58.09-.79.28-.2.18-.31.42-.31.71s.19.64.56,1.03l2.05,2.17c.24-.42.41-.83.49-1.24l.97.27c-.13.62-.38,1.19-.74,1.72l1.46,1.55h-1.36ZM126.16,149.54c.53,0,1.02-.22,1.47-.65l-1.79-1.89c-.65.38-.97.84-.97,1.37,0,.32.12.6.35.83.23.23.54.34.93.34h0Z"></path><path class="cls-1" d="M148.32,143.07v7.32h-1.13v-3.22h-3.8v3.22h-1.14v-7.32h1.14v3.08h3.8v-3.08h1.13Z"></path><path class="cls-1" d="M157.45,150.53c-1.09,0-2-.36-2.72-1.09-.73-.73-1.09-1.63-1.09-2.71s.36-1.99,1.09-2.7c.73-.72,1.64-1.08,2.72-1.08s1.99.36,2.72,1.08c.72.72,1.09,1.62,1.09,2.7s-.36,1.98-1.09,2.71c-.72.73-1.63,1.09-2.71,1.09h0ZM157.45,149.5c.79,0,1.43-.27,1.92-.8.5-.54.75-1.2.75-1.97s-.25-1.42-.75-1.94c-.5-.53-1.14-.79-1.92-.79s-1.43.26-1.93.79c-.5.52-.75,1.17-.75,1.93s.25,1.44.75,1.97c.5.53,1.14.8,1.93.8h0Z"></path><path class="cls-1" d="M171.76,144.1h-2.57v6.29h-1.14v-6.29h-2.58v-1.03h6.29v1.03Z"></path><path class="cls-1" d="M177.94,144.1v2.08h3.62v.98h-3.62v2.19h4.14v1.04h-5.26v-7.32h5.27v1.03h-4.15Z"></path><path class="cls-1" d="M192.51,149.34v1.05h-4.99v-7.32h1.14v6.27h3.84Z"></path></g><g><path class="cls-1" d="M115.48,82.34c1.49-27.45,2.97-54.89,4.46-82.34,3.19,0,1.82,3.15,4.96,5.4,4.66,3.35,6.93,4.44,5.54,11.57l-10.63,54.41c-.86,4.43-3.22,7.02-4.32,10.96h0Z"></path><path class="cls-1" d="M114.05,82.34c-1.49-27.45-2.97-54.89-4.46-82.34-3.19,0-1.82,3.15-4.96,5.4-4.66,3.35-6.93,4.44-5.54,11.57l10.63,54.41c.86,4.43,3.22,7.02,4.32,10.96h0Z"></path><path class="cls-1" d="M92.56,57.41l-15.91-29.66c-1.61.76-.18,2.02-1.22,3.9-1.56,2.79-2.45,3.88-.06,7.15l10.19,12.85c1.48,2.03,5.52,4.02,7.01,5.75h0Z"></path><path class="cls-1" d="M106.77,70.37c-1.65-2.97-6.94-7.07-8.5-10.48l-13.62-30.51c-2.51-5.48-.89-6.81,2.22-10.41,2.09-2.42.38-4.7,2.95-5.32l16.95,56.71h0Z"></path><path class="cls-1" d="M136.97,57.41l15.91-29.66c1.61.76.18,2.02,1.22,3.9,1.56,2.79,2.45,3.88.06,7.15l-10.19,12.85c-1.48,2.03-5.52,4.02-7.01,5.75h0Z"></path><path class="cls-1" d="M122.77,70.37c1.65-2.97,6.94-7.07,8.5-10.48l13.62-30.51c2.51-5.48.89-6.81-2.22-10.41-2.09-2.42-.38-4.7-2.95-5.32l-16.95,56.71Z"></path></g><g><path class="cls-1" d="M28.69,99.6h3.23v.47c-.4,0-.79.17-1.16.49-.37.33-.65.65-.82.97l-.26.47-12.9,27.31c-.17.34-.42.52-.73.52h-.26c-.32,0-.54-.17-.69-.52L1.94,101.49c-.57-.95-1.22-1.42-1.94-1.42v-.47h7.1v.47l-.43.09c-.37.2-.36.79.04,1.76,0,.03.01.06.04.09l10.58,23.01c.09.17.22.26.41.26s.32-.09.41-.26l10.92-23.01c.17-.43.27-.69.3-.77.09-.37.07-.66-.04-.86-.11-.2-.26-.3-.43-.3h-.22v-.47Z"></path><path class="cls-1" d="M52.26,99.56h4.3v3.44h-.52c-.03-.09-.08-.19-.15-.32-.07-.13-.22-.36-.43-.69-.22-.33-.46-.62-.73-.88-.27-.26-.62-.49-1.05-.71-.43-.22-.89-.32-1.38-.32h-11.83l.86.47v13.29h5.08c.49,0,.95-.1,1.4-.3.44-.2.8-.44,1.08-.73.27-.29.52-.57.73-.86.22-.29.37-.53.45-.73l.13-.34h.52v6.41h-.52c-.03-.09-.07-.19-.13-.32-.06-.13-.2-.37-.43-.71-.23-.34-.48-.65-.75-.9-.27-.26-.63-.49-1.08-.71-.45-.21-.91-.32-1.4-.32h-5.89l.86.47v14.37h10.88v-.04c.49,0,.95-.1,1.4-.3.44-.2.8-.44,1.08-.73.27-.29.51-.57.71-.86.2-.29.36-.53.47-.73l.13-.3h.52v3.44h-20.95v-.47h.15c.07,0,.19-.03.34-.09.16-.06.3-.14.43-.26.13-.11.25-.31.37-.58.11-.27.17-.59.17-.97v-25.2c0-.63-.11-1.1-.34-1.42-.23-.32-.46-.49-.69-.52l-.34-.04v-.52h16.56Z"></path><path class="cls-1" d="M85.42,127.73c.75.95,1.49,1.42,2.24,1.42v.52l-7.48-.04v-.47c.11,0,.24-.01.39-.04.14-.03.31-.18.49-.45.19-.27-.02-.75-.62-1.44l-4.34-6.45c-.49-.72-1.15-1.08-1.98-1.08l-8.21.09.77.6v6.84c0,.6.11,1.07.34,1.4.23.33.46.51.69.54h.34v.52h-7.1v-.52h.15c.07,0,.19-.03.34-.09.16-.06.3-.14.43-.26.13-.11.25-.31.37-.58.11-.27.17-.59.17-.97v-25.29c0-.6-.11-1.05-.34-1.35-.23-.3-.46-.47-.69-.49h-.34v-.52h13.12c3.07,0,5.55,1.05,7.44,3.14,1.89,2.09,2.84,4.4,2.84,6.92s-.95,4.95-2.84,7.01c-.09.11-.21.24-.37.37-.16.13-.32.26-.47.39-.16.13-.32.25-.47.37-.16.12-.31.22-.45.32-.14.1-.27.19-.37.26-.1.07-.19.12-.28.15l-.09.09,6.32,9.12ZM73.8,119.25c1.4,0,2.82-.95,4.26-2.86,1.43-1.91,2.15-4.15,2.15-6.73,0-1.43-.16-2.72-.47-3.87-.32-1.15-.72-2.06-1.2-2.75-.49-.69-1.03-1.27-1.63-1.74-.6-.47-1.16-.8-1.68-.97-.52-.17-.99-.26-1.42-.26h-7.91l.77.47v18.71h7.14Z"></path><path class="cls-1" d="M123.65,129.15v.47h-7.1v-.47c.11,0,.23-.01.34-.04.11-.03.25-.18.41-.45.16-.27.02-.77-.41-1.48l-2.92-6.06h-17.03l-2.93,6.06c-.29.69-.4,1.18-.34,1.46.06.29.2.45.43.47l.3.04v.47h-3.23v-.47c.86,0,1.59-.63,2.19-1.89l12-24.69c-.83-1.83-1.69-2.75-2.58-2.75v-.43h4.9c.23,0,.39.11.47.34l13.29,27.57c.6,1.23,1.33,1.85,2.19,1.85ZM97.2,120.59h16.64l-8.26-17.42-8.39,17.42Z"></path><path class="cls-1" d="M156.42,129.1v.52h-3.4c-.72,0-1.61-.57-2.67-1.72l-20-22.71c-.14-.17-.33-.22-.56-.15-.23.07-.34.24-.34.49v21.68c0,.57.12,1.02.37,1.33.24.32.49.49.75.52l.39.04v.52h-3.53v-.52h.15c.07,0,.19-.03.34-.09.16-.06.29-.15.41-.28.11-.13.22-.32.32-.58.1-.26.15-.57.15-.95v-24.04c0-.49-.05-.92-.15-1.31-.1-.39-.22-.69-.37-.9-.14-.21-.29-.39-.43-.54-.14-.14-.26-.23-.34-.26l-.17-.09v-.52h3.74c.29,0,.57.16.86.47l21.46,24.95c.17.17.37.21.58.13s.32-.24.32-.47v-22.62c0-.6-.12-1.06-.37-1.38-.24-.32-.49-.49-.75-.52l-.34-.04v-.52h3.48v.52h-.13c-.06,0-.17.04-.32.11-.16.07-.3.17-.43.28-.13.12-.24.31-.34.58-.1.27-.15.6-.15.97v24.39c0,.63.12,1.17.37,1.61.24.44.5.74.75.88l.34.21Z"></path><path class="cls-1" d="M184.64,104.33c2.58,2.98,3.87,6.35,3.87,10.11,0,4.13-1.3,7.64-3.91,10.54-1.29,1.46-2.92,2.6-4.88,3.42-1.96.82-4.14,1.23-6.52,1.23h-11.66v-.52h.15c.07,0,.19-.03.34-.09.16-.06.29-.14.41-.24.11-.1.23-.27.34-.52.11-.24.19-.55.22-.92v-25.38c-.03-.6-.16-1.06-.39-1.38-.23-.32-.46-.47-.69-.47l-.3-.04v-.52h11.57c2.35,0,4.54.44,6.58,1.33,2.01.89,3.63,2.04,4.86,3.44ZM173.28,129.15c1.09,0,2.25-.34,3.48-1.01,1.23-.67,2.41-1.61,3.53-2.8,1.12-1.19,2.04-2.75,2.77-4.67.73-1.92,1.1-4.01,1.1-6.28,0-1.86-.24-3.61-.73-5.23-.49-1.62-1.13-2.97-1.91-4.06-.79-1.09-1.67-2.02-2.65-2.8-.98-.77-1.94-1.34-2.88-1.7-.95-.36-1.85-.54-2.71-.54h-6.8l.73.47v28.6h6.06Z"></path><path class="cls-1" d="M221.58,129.15v.47h-7.1v-.47c.11,0,.23-.01.34-.04.11-.03.25-.18.41-.45.16-.27.02-.77-.41-1.48l-2.92-6.06h-17.03l-2.93,6.06c-.29.69-.4,1.18-.34,1.46.06.29.2.45.43.47l.3.04v.47h-3.23v-.47c.86,0,1.59-.63,2.19-1.89l12-24.69c-.83-1.83-1.69-2.75-2.58-2.75v-.43h4.9c.23,0,.39.11.47.34l13.29,27.57c.6,1.23,1.33,1.85,2.19,1.85ZM195.13,120.59h16.64l-8.26-17.42-8.39,17.42Z"></path></g></g></g></svg>