<svg xmlns="http://www.w3.org/2000/svg" id="Layer_2" viewBox="0 0 213.38 57.9"><defs><style>      .cls-1 {        fill: #fff;      }    </style></defs><g id="Layer_1-2" data-name="Layer_1"><g><g><path class="cls-1" d="M0,37.18c2.02-.64,2.55-2.44,2.55-4.36V4.25C2.55,2.34,2.02.64,0,0h8.71c-2.02.64-2.55,2.34-2.55,4.25v32.35h9.56c4.25,0,6.96-2.44,9.03-5.95l-1.49,6.53H0Z"></path><path class="cls-1" d="M43.64,21.51v-2.97c0-3.4-1.33-7.44-5.42-7.44-1.86,0-5.42.9-5.42,3.24,0,.74.27,1.49.27,2.23,0,1.38-.69,1.97-2.02,1.97-1.22,0-1.86-.96-1.86-2.07,0-3.56,6.53-6,9.51-6,5.58,0,7.91,2.82,7.91,8.23v13.44c0,1.59.53,3.29,2.44,3.29.74,0,1.49-.27,2.07-.74-.42,1.38-2.39,2.5-3.77,2.5-3.19,0-3.72-2.39-3.72-5.05v-9.72c-4.67,1.43-11.95,2.44-11.95,8.76,0,2.97,2.07,4.78,4.99,4.78,2.12,0,4.25-.53,6-1.75-2.18,2.18-4.73,2.97-7.81,2.97-3.51,0-6.91-1.86-6.91-5.74,0-8.55,13.33-7.76,15.67-9.93Z"></path><path class="cls-1" d="M54.41,24.49c0-7.54,4.89-14.02,12.8-14.02,3.45,0,5.26,1.01,7.81,3.19v-6.32c0-1.27-.21-3.56-1.97-3.56l4.94-3.77v30.49c0,1.33.37,2.71,1.97,2.81l-4.94,3.72v-18.64c0-4.04-4.36-7.38-8.18-7.38-6.11,0-9.08,7.06-9.08,12.32s2.76,12.59,8.92,12.59c2.97,0,4.78-1.06,6.91-3.08-1.7,2.6-4.78,4.36-7.91,4.36-6.91,0-11.26-6.21-11.26-12.69Z"></path><path class="cls-1" d="M96.5,10.41c7.38,0,13.33,6,13.33,13.39s-5.9,13.39-13.28,13.39-13.39-6-13.39-13.39,6-13.39,13.33-13.39ZM86.31,22.79c0,6.16,3.98,13.65,10.94,13.65,6.16,0,9.3-6.11,9.3-11.58,0-6.21-3.98-13.65-10.94-13.65-6.16,0-9.3,6.11-9.3,11.58Z"></path><path class="cls-1" d="M115.81,32.56V7.06c0-1.22-.27-3.51-1.91-3.51l4.89-3.56.05,32.56c0,2.12.58,3.88,2.71,4.62h-8.45c2.12-.74,2.71-2.5,2.71-4.62Z"></path><path class="cls-1" d="M124.82,0h8.98c-1.22.37-1.91,1.81-1.91,3.03,0,.48.11.96.27,1.38l11.1,27.2,11.37-27.46c.16-.37.27-.8.27-1.22,0-1.54-1.43-2.66-2.81-2.92h7.54c-2.23.69-3.56,2.07-4.41,4.2l-13.54,32.99-13.44-32.83c-.69-1.7-1.59-3.61-3.4-4.36Z"></path><path class="cls-1" d="M160.58,37.18c2.02-.64,2.55-2.39,2.55-4.36v-15.56c0-1.12-.21-3.29-1.75-3.29l4.78-3.35v22.2c0,1.97.58,3.72,2.55,4.36h-8.13ZM162.28,4.25c0-1.27.9-2.12,2.18-2.12s2.12.85,2.12,2.12-.85,2.12-2.12,2.12-2.18-.85-2.18-2.12Z"></path><path class="cls-1" d="M171.87,10.62h2.18v-5.74c0-2.12.9-4.14,3.03-4.89v10.62h4.78v.69h-4.78v19.02c0,2.92,1.91,5.58,4.99,5.58,1.75,0,3.82-.9,4.94-2.34-1.06,2.39-4.04,3.61-6.48,3.61-4.67,0-6.48-3.72-6.48-7.91V11.31h-2.18v-.69Z"></path><path class="cls-1" d="M205.89,21.51v-2.97c0-3.4-1.33-7.44-5.42-7.44-1.86,0-5.42.9-5.42,3.24,0,.74.27,1.49.27,2.23,0,1.38-.69,1.97-2.02,1.97-1.22,0-1.86-.96-1.86-2.07,0-3.56,6.53-6,9.51-6,5.58,0,7.91,2.82,7.91,8.23v13.44c0,1.59.53,3.29,2.44,3.29.74,0,1.49-.27,2.07-.74-.42,1.38-2.39,2.5-3.77,2.5-3.19,0-3.72-2.39-3.72-5.05v-9.72c-4.67,1.43-11.95,2.44-11.95,8.76,0,2.97,2.07,4.78,4.99,4.78,2.12,0,4.25-.53,6-1.75-2.18,2.18-4.73,2.97-7.81,2.97-3.51,0-6.91-1.86-6.91-5.74,0-8.55,13.33-7.76,15.67-9.93Z"></path></g><g><path class="cls-1" d="M54.09,57.02l.58-.71c.73.52,1.54.79,2.32.79,1.08,0,1.74-.49,1.74-1.15,0-.51-.39-.87-1.2-1.05l-1.57-.34c-1.11-.24-1.76-.86-1.76-1.73,0-1.12,1.08-1.95,2.68-1.95,1.02,0,2.01.34,2.68.93l-.67.63c-.54-.5-1.24-.76-2.02-.76-1.06,0-1.67.47-1.67,1.09,0,.49.37.82,1.24,1.01l1.57.34c1.11.24,1.73.85,1.73,1.77,0,1.2-1.07,2.02-2.78,2.02-1.06,0-2.1-.31-2.88-.88Z"></path><path class="cls-1" d="M75.78,50.99l-2.4,6.79h-1.01l-2.07-5.57-2.08,5.57h-1.01l-2.4-6.79h1.02l1.94,5.5,2.06-5.5h.94l2.06,5.5,1.94-5.5h1.02Z"></path><path class="cls-1" d="M82.44,51.81v2.02h3.71v.82h-3.71v2.33h4.2v.81h-5.19v-6.79h5.19v.81h-4.2Z"></path><path class="cls-1" d="M93.7,51.81v2.02h3.71v.82h-3.71v2.33h4.2v.81h-5.19v-6.79h5.19v.81h-4.2Z"></path><path class="cls-1" d="M109.34,51.81h-2.58v5.98h-1v-5.98h-2.58v-.81h6.15v.81Z"></path><path class="cls-1" d="M115.12,54.39c0-.81.69-1.45,1.61-1.45s1.61.63,1.61,1.45-.69,1.45-1.61,1.45-1.61-.63-1.61-1.45Z"></path><path class="cls-1" d="M129.74,56.97v.81h-4.85v-6.79h1v5.98h3.85Z"></path><path class="cls-1" d="M135.51,50.99h1v6.79h-1v-6.79Z"></path><path class="cls-1" d="M143.89,51.81v2.21h3.87v.82h-3.87v2.95h-1v-6.79h5.19v.81h-4.2Z"></path><path class="cls-1" d="M155.09,51.81v2.02h3.71v.82h-3.71v2.33h4.2v.81h-5.19v-6.79h5.19v.81h-4.2Z"></path></g></g></g></svg>